<?xml version="1.0" encoding="utf-8" standalone="no"?>
<!DOCTYPE svg PUBLIC "-//W3C//DTD SVG 1.1//EN"
  "http://www.w3.org/Graphics/SVG/1.1/DTD/svg11.dtd">
<!-- Created with matplotlib (http://matplotlib.org/) -->
<svg height="345.6pt" version="1.1" viewBox="0 0 460.8 345.6" width="460.8pt" xmlns="http://www.w3.org/2000/svg" xmlns:xlink="http://www.w3.org/1999/xlink">
 <defs>
  <style type="text/css">
*{stroke-linecap:butt;stroke-linejoin:round;}
  </style>
 </defs>
 <g id="figure_1">
  <g id="patch_1">
   <path d="M 0 345.6 
L 460.8 345.6 
L 460.8 0 
L 0 0 
z
" style="fill:#ffffff;"/>
  </g>
  <g id="axes_1">
   <g id="patch_2">
    <path d="M 57.6 162.432 
L 414.72 162.432 
L 414.72 41.472 
L 57.6 41.472 
z
" style="fill:#ffffff;"/>
   </g>
   <g id="line2d_1">
    <path clip-path="url(#peccc1ef124)" d="M 73.832727 120.219888 
L 75.136561 106.781817 
L 76.440394 109.139171 
L 77.744228 114.489744 
L 79.048061 116.624456 
L 80.351895 103.301133 
L 81.655728 114.239173 
L 82.959562 108.876684 
L 84.263395 108.177618 
L 85.567229 110.838302 
L 86.871062 120.782512 
L 88.174896 131.581456 
L 89.478729 132.13446 
L 90.782563 128.691456 
L 92.086396 124.194591 
L 93.39023 152.890637 
L 94.694064 141.382067 
L 95.997897 143.732556 
L 97.301731 155.722334 
L 98.605564 153.115183 
L 99.909398 151.587317 
L 101.213231 156.152942 
L 102.517065 156.917338 
L 103.820898 156.758539 
L 105.124732 156.929579 
L 109.036232 156.920671 
L 111.643899 156.304206 
L 112.947733 156.840206 
L 114.251566 156.919262 
L 115.5554 151.431306 
L 116.859233 155.694611 
L 118.163067 149.546981 
L 119.4669 153.332823 
L 120.770734 147.08111 
L 122.074567 150.333432 
L 124.682234 126.072659 
L 125.986068 122.937962 
L 127.289901 124.212334 
L 128.593735 122.661289 
L 129.897568 114.191323 
L 131.201402 124.280835 
L 132.505235 135.974742 
L 133.809069 127.666946 
L 135.112903 118.195251 
L 136.416736 100.075559 
L 137.72057 111.849674 
L 139.024403 126.52812 
L 140.328237 106.00428 
L 141.63207 104.080865 
L 142.935904 118.840637 
L 144.239737 111.625971 
L 145.543571 105.465327 
L 146.847404 110.312689 
L 148.151238 97.797006 
L 149.455071 93.210603 
L 150.758905 113.210267 
L 152.062738 104.768237 
L 153.366572 102.503489 
L 154.670405 107.569581 
L 155.974239 98.132756 
L 157.278072 77.579647 
L 158.581906 93.41755 
L 159.885739 113.63269 
L 161.189573 91.094123 
L 163.79724 116.503254 
L 165.101073 116.523716 
L 166.404907 119.795712 
L 167.70874 119.883329 
L 169.012574 113.195368 
L 170.316407 118.63718 
L 171.620241 112.438595 
L 172.924074 119.239365 
L 174.227908 100.223362 
L 175.531742 103.585227 
L 176.835575 114.015489 
L 178.139409 97.782415 
L 179.443242 117.42007 
L 180.747076 110.664849 
L 182.050909 102.983894 
L 183.354743 109.802805 
L 184.658576 110.218648 
L 185.96241 109.725217 
L 187.266243 125.016828 
L 188.570077 109.511722 
L 189.87391 113.381077 
L 191.177744 104.174403 
L 192.481577 109.757307 
L 193.785411 123.298389 
L 195.089244 100.600505 
L 196.393078 124.846349 
L 197.696911 121.63721 
L 199.000745 106.45808 
L 200.304578 123.447526 
L 201.608412 104.284247 
L 202.912245 129.623434 
L 204.216079 146.58524 
L 205.519912 124.671789 
L 206.823746 126.212373 
L 208.127579 125.151837 
L 209.431413 147.284405 
L 210.735246 153.301599 
L 212.03908 129.183892 
L 213.342913 116.680454 
L 214.646747 138.638437 
L 215.950581 124.127228 
L 217.254414 122.508812 
L 218.558248 147.565414 
L 219.862081 125.381852 
L 221.165915 126.402547 
L 222.469748 104.463505 
L 223.773582 115.668471 
L 225.077415 109.177188 
L 226.381249 109.834588 
L 227.685082 113.425675 
L 228.988916 111.783082 
L 230.292749 103.986492 
L 231.596583 109.929774 
L 232.900416 80.04165 
L 234.20425 91.511401 
L 235.508083 138.861341 
L 238.11575 90.768618 
L 239.419584 99.926854 
L 240.723417 108.011956 
L 242.027251 88.70051 
L 243.331084 92.048933 
L 244.634918 103.392756 
L 245.938751 86.459065 
L 247.242585 80.751532 
L 248.546418 95.048269 
L 249.850252 88.290654 
L 251.154085 105.26791 
L 252.457919 100.612643 
L 253.761752 118.769823 
L 255.065586 108.175338 
L 256.369419 101.426897 
L 257.673253 91.665883 
L 258.977087 104.87603 
L 260.28092 73.010966 
L 261.584754 94.354566 
L 262.888587 105.373838 
L 264.192421 100.270836 
L 265.496254 112.816941 
L 266.800088 95.440344 
L 268.103921 85.034783 
L 269.407755 96.25229 
L 270.711588 78.865219 
L 272.015422 110.170404 
L 273.319255 95.991503 
L 274.623089 73.527173 
L 275.926922 109.056067 
L 277.230756 87.935038 
L 278.534589 95.589037 
L 279.838423 76.387519 
L 281.142256 87.261274 
L 282.44609 93.222651 
L 283.749923 88.952927 
L 285.053757 64.914184 
L 286.35759 109.395181 
L 287.661424 109.496004 
L 288.965257 100.151956 
L 290.269091 102.762327 
L 291.572924 111.729057 
L 294.180591 86.84774 
L 295.484425 69.618318 
L 296.788258 117.218764 
L 298.092092 87.451125 
L 299.395926 100.141525 
L 300.699759 108.40656 
L 303.307426 92.527765 
L 304.61126 61.375061 
L 305.915093 109.503195 
L 307.218927 125.064765 
L 308.52276 129.629649 
L 309.826594 72.864002 
L 311.130427 94.805846 
L 312.434261 57.85723 
L 313.738094 116.185365 
L 315.041928 90.580306 
L 316.345761 91.948588 
L 317.649595 67.857075 
L 318.953428 92.144037 
L 320.257262 123.969814 
L 321.561095 86.309291 
L 322.864929 100.386851 
L 324.168762 101.545294 
L 325.472596 68.358541 
L 326.776429 108.202701 
L 328.080263 72.980467 
L 329.384096 86.638107 
L 330.68793 101.494714 
L 331.991763 64.155792 
L 333.295597 122.446076 
L 334.59943 98.717019 
L 335.903264 88.387258 
L 337.207097 111.577453 
L 338.510931 96.899289 
L 339.814765 84.846516 
L 341.118598 98.567621 
L 342.422432 97.625558 
L 343.726265 97.249382 
L 345.030099 86.34566 
L 346.333932 79.652101 
L 347.637766 83.600801 
L 348.941599 100.484182 
L 350.245433 86.361823 
L 351.549266 78.786458 
L 352.8531 74.701375 
L 354.156933 51.079258 
L 355.460767 103.407492 
L 356.7646 124.043352 
L 358.068434 94.759973 
L 359.372267 79.76808 
L 360.676101 88.58233 
L 361.979934 70.134645 
L 363.283768 96.31871 
L 364.587601 68.251086 
L 365.891435 108.787018 
L 367.195268 86.630352 
L 368.499102 73.417174 
L 369.802935 46.970182 
L 372.410602 93.307449 
L 373.714436 100.421906 
L 375.018269 120.972528 
L 376.322103 67.508473 
L 377.625936 92.968339 
L 378.92977 105.229157 
L 380.233604 106.930166 
L 381.537437 75.76756 
L 382.841271 86.790558 
L 384.145104 105.738301 
L 385.448938 70.912257 
L 386.752771 68.734166 
L 388.056605 106.833079 
L 389.360438 72.681539 
L 390.664272 79.89696 
L 391.968105 76.325132 
L 393.271939 102.422768 
L 394.575772 117.026473 
L 395.879606 82.719344 
L 397.183439 76.80982 
L 398.487273 87.391298 
L 398.487273 87.391298 
" style="fill:none;stroke:#1f77b4;stroke-linecap:square;stroke-width:1.5;"/>
   </g>
   <g id="patch_3">
    <path d="M 57.6 162.432 
L 57.6 41.472 
" style="fill:none;stroke:#000000;stroke-linecap:square;stroke-linejoin:miter;stroke-width:0.8;"/>
   </g>
   <g id="patch_4">
    <path d="M 414.72 162.432 
L 414.72 41.472 
" style="fill:none;stroke:#000000;stroke-linecap:square;stroke-linejoin:miter;stroke-width:0.8;"/>
   </g>
   <g id="patch_5">
    <path d="M 57.6 162.432 
L 414.72 162.432 
" style="fill:none;stroke:#000000;stroke-linecap:square;stroke-linejoin:miter;stroke-width:0.8;"/>
   </g>
   <g id="patch_6">
    <path d="M 57.6 41.472 
L 414.72 41.472 
" style="fill:none;stroke:#000000;stroke-linecap:square;stroke-linejoin:miter;stroke-width:0.8;"/>
   </g>
   <g id="legend_1">
    <g id="patch_7">
     <path d="M 64.6 64.150125 
L 133.559375 64.150125 
Q 135.559375 64.150125 135.559375 62.150125 
L 135.559375 48.472 
Q 135.559375 46.472 133.559375 46.472 
L 64.6 46.472 
Q 62.6 46.472 62.6 48.472 
L 62.6 62.150125 
Q 62.6 64.150125 64.6 64.150125 
z
" style="fill:#ffffff;opacity:0.8;stroke:#cccccc;stroke-linejoin:miter;"/>
    </g>
    <g id="line2d_2">
     <path d="M 66.6 54.570437 
L 86.6 54.570437 
" style="fill:none;stroke:#1f77b4;stroke-linecap:square;stroke-width:1.5;"/>
    </g>
    <g id="line2d_3"/>
    <g id="text_1">
     <!-- NMF LS -->
     <defs>
      <path d="M 9.8125 72.90625 
L 23.09375 72.90625 
L 55.421875 11.921875 
L 55.421875 72.90625 
L 64.984375 72.90625 
L 64.984375 0 
L 51.703125 0 
L 19.390625 60.984375 
L 19.390625 0 
L 9.8125 0 
z
" id="DejaVuSans-4e"/>
      <path d="M 9.8125 72.90625 
L 24.515625 72.90625 
L 43.109375 23.296875 
L 61.8125 72.90625 
L 76.515625 72.90625 
L 76.515625 0 
L 66.890625 0 
L 66.890625 64.015625 
L 48.09375 14.015625 
L 38.1875 14.015625 
L 19.390625 64.015625 
L 19.390625 0 
L 9.8125 0 
z
" id="DejaVuSans-4d"/>
      <path d="M 9.8125 72.90625 
L 51.703125 72.90625 
L 51.703125 64.59375 
L 19.671875 64.59375 
L 19.671875 43.109375 
L 48.578125 43.109375 
L 48.578125 34.8125 
L 19.671875 34.8125 
L 19.671875 0 
L 9.8125 0 
z
" id="DejaVuSans-46"/>
      <path id="DejaVuSans-20"/>
      <path d="M 9.8125 72.90625 
L 19.671875 72.90625 
L 19.671875 8.296875 
L 55.171875 8.296875 
L 55.171875 0 
L 9.8125 0 
z
" id="DejaVuSans-4c"/>
      <path d="M 53.515625 70.515625 
L 53.515625 60.890625 
Q 47.90625 63.578125 42.921875 64.890625 
Q 37.9375 66.21875 33.296875 66.21875 
Q 25.25 66.21875 20.875 63.09375 
Q 16.5 59.96875 16.5 54.203125 
Q 16.5 49.359375 19.40625 46.890625 
Q 22.3125 44.4375 30.421875 42.921875 
L 36.375 41.703125 
Q 47.40625 39.59375 52.65625 34.296875 
Q 57.90625 29 57.90625 20.125 
Q 57.90625 9.515625 50.796875 4.046875 
Q 43.703125 -1.421875 29.984375 -1.421875 
Q 24.8125 -1.421875 18.96875 -0.25 
Q 13.140625 0.921875 6.890625 3.21875 
L 6.890625 13.375 
Q 12.890625 10.015625 18.65625 8.296875 
Q 24.421875 6.59375 29.984375 6.59375 
Q 38.421875 6.59375 43.015625 9.90625 
Q 47.609375 13.234375 47.609375 19.390625 
Q 47.609375 24.75 44.3125 27.78125 
Q 41.015625 30.8125 33.5 32.328125 
L 27.484375 33.5 
Q 16.453125 35.6875 11.515625 40.375 
Q 6.59375 45.0625 6.59375 53.421875 
Q 6.59375 63.09375 13.40625 68.65625 
Q 20.21875 74.21875 32.171875 74.21875 
Q 37.3125 74.21875 42.625 73.28125 
Q 47.953125 72.359375 53.515625 70.515625 
z
" id="DejaVuSans-53"/>
     </defs>
     <g transform="translate(94.6 58.070437)scale(0.1 -0.1)">
      <use xlink:href="#DejaVuSans-4e"/>
      <use x="74.804688" xlink:href="#DejaVuSans-4d"/>
      <use x="161.083984" xlink:href="#DejaVuSans-46"/>
      <use x="218.603516" xlink:href="#DejaVuSans-20"/>
      <use x="250.390625" xlink:href="#DejaVuSans-4c"/>
      <use x="306.103516" xlink:href="#DejaVuSans-53"/>
     </g>
    </g>
   </g>
  </g>
  <g id="axes_2">
   <g id="patch_8">
    <path d="M 57.6 307.584 
L 414.72 307.584 
L 414.72 186.624 
L 57.6 186.624 
z
" style="fill:#ffffff;"/>
   </g>
   <g id="matplotlib.axis_1">
    <g id="xtick_1">
     <g id="line2d_4">
      <defs>
       <path d="M 0 0 
L 0 3.5 
" id="m5611f7db55" style="stroke:#000000;stroke-width:0.8;"/>
      </defs>
      <g>
       <use style="stroke:#000000;stroke-width:0.8;" x="73.832727" xlink:href="#m5611f7db55" y="307.584"/>
      </g>
     </g>
     <g id="text_2">
      <!-- 0 -->
      <defs>
       <path d="M 31.78125 66.40625 
Q 24.171875 66.40625 20.328125 58.90625 
Q 16.5 51.421875 16.5 36.375 
Q 16.5 21.390625 20.328125 13.890625 
Q 24.171875 6.390625 31.78125 6.390625 
Q 39.453125 6.390625 43.28125 13.890625 
Q 47.125 21.390625 47.125 36.375 
Q 47.125 51.421875 43.28125 58.90625 
Q 39.453125 66.40625 31.78125 66.40625 
z
M 31.78125 74.21875 
Q 44.046875 74.21875 50.515625 64.515625 
Q 56.984375 54.828125 56.984375 36.375 
Q 56.984375 17.96875 50.515625 8.265625 
Q 44.046875 -1.421875 31.78125 -1.421875 
Q 19.53125 -1.421875 13.0625 8.265625 
Q 6.59375 17.96875 6.59375 36.375 
Q 6.59375 54.828125 13.0625 64.515625 
Q 19.53125 74.21875 31.78125 74.21875 
z
" id="DejaVuSans-30"/>
      </defs>
      <g transform="translate(70.651477 322.182437)scale(0.1 -0.1)">
       <use xlink:href="#DejaVuSans-30"/>
      </g>
     </g>
    </g>
    <g id="xtick_2">
     <g id="line2d_5">
      <g>
       <use style="stroke:#000000;stroke-width:0.8;" x="139.024403" xlink:href="#m5611f7db55" y="307.584"/>
      </g>
     </g>
     <g id="text_3">
      <!-- 50 -->
      <defs>
       <path d="M 10.796875 72.90625 
L 49.515625 72.90625 
L 49.515625 64.59375 
L 19.828125 64.59375 
L 19.828125 46.734375 
Q 21.96875 47.46875 24.109375 47.828125 
Q 26.265625 48.1875 28.421875 48.1875 
Q 40.625 48.1875 47.75 41.5 
Q 54.890625 34.8125 54.890625 23.390625 
Q 54.890625 11.625 47.5625 5.09375 
Q 40.234375 -1.421875 26.90625 -1.421875 
Q 22.3125 -1.421875 17.546875 -0.640625 
Q 12.796875 0.140625 7.71875 1.703125 
L 7.71875 11.625 
Q 12.109375 9.234375 16.796875 8.0625 
Q 21.484375 6.890625 26.703125 6.890625 
Q 35.15625 6.890625 40.078125 11.328125 
Q 45.015625 15.765625 45.015625 23.390625 
Q 45.015625 31 40.078125 35.4375 
Q 35.15625 39.890625 26.703125 39.890625 
Q 22.75 39.890625 18.8125 39.015625 
Q 14.890625 38.140625 10.796875 36.28125 
z
" id="DejaVuSans-35"/>
      </defs>
      <g transform="translate(132.661903 322.182437)scale(0.1 -0.1)">
       <use xlink:href="#DejaVuSans-35"/>
       <use x="63.623047" xlink:href="#DejaVuSans-30"/>
      </g>
     </g>
    </g>
    <g id="xtick_3">
     <g id="line2d_6">
      <g>
       <use style="stroke:#000000;stroke-width:0.8;" x="204.216079" xlink:href="#m5611f7db55" y="307.584"/>
      </g>
     </g>
     <g id="text_4">
      <!-- 100 -->
      <defs>
       <path d="M 12.40625 8.296875 
L 28.515625 8.296875 
L 28.515625 63.921875 
L 10.984375 60.40625 
L 10.984375 69.390625 
L 28.421875 72.90625 
L 38.28125 72.90625 
L 38.28125 8.296875 
L 54.390625 8.296875 
L 54.390625 0 
L 12.40625 0 
z
" id="DejaVuSans-31"/>
      </defs>
      <g transform="translate(194.672329 322.182437)scale(0.1 -0.1)">
       <use xlink:href="#DejaVuSans-31"/>
       <use x="63.623047" xlink:href="#DejaVuSans-30"/>
       <use x="127.246094" xlink:href="#DejaVuSans-30"/>
      </g>
     </g>
    </g>
    <g id="xtick_4">
     <g id="line2d_7">
      <g>
       <use style="stroke:#000000;stroke-width:0.8;" x="269.407755" xlink:href="#m5611f7db55" y="307.584"/>
      </g>
     </g>
     <g id="text_5">
      <!-- 150 -->
      <g transform="translate(259.864005 322.182437)scale(0.1 -0.1)">
       <use xlink:href="#DejaVuSans-31"/>
       <use x="63.623047" xlink:href="#DejaVuSans-35"/>
       <use x="127.246094" xlink:href="#DejaVuSans-30"/>
      </g>
     </g>
    </g>
    <g id="xtick_5">
     <g id="line2d_8">
      <g>
       <use style="stroke:#000000;stroke-width:0.8;" x="334.59943" xlink:href="#m5611f7db55" y="307.584"/>
      </g>
     </g>
     <g id="text_6">
      <!-- 200 -->
      <defs>
       <path d="M 19.1875 8.296875 
L 53.609375 8.296875 
L 53.609375 0 
L 7.328125 0 
L 7.328125 8.296875 
Q 12.9375 14.109375 22.625 23.890625 
Q 32.328125 33.6875 34.8125 36.53125 
Q 39.546875 41.84375 41.421875 45.53125 
Q 43.3125 49.21875 43.3125 52.78125 
Q 43.3125 58.59375 39.234375 62.25 
Q 35.15625 65.921875 28.609375 65.921875 
Q 23.96875 65.921875 18.8125 64.3125 
Q 13.671875 62.703125 7.8125 59.421875 
L 7.8125 69.390625 
Q 13.765625 71.78125 18.9375 73 
Q 24.125 74.21875 28.421875 74.21875 
Q 39.75 74.21875 46.484375 68.546875 
Q 53.21875 62.890625 53.21875 53.421875 
Q 53.21875 48.921875 51.53125 44.890625 
Q 49.859375 40.875 45.40625 35.40625 
Q 44.1875 33.984375 37.640625 27.21875 
Q 31.109375 20.453125 19.1875 8.296875 
z
" id="DejaVuSans-32"/>
      </defs>
      <g transform="translate(325.05568 322.182437)scale(0.1 -0.1)">
       <use xlink:href="#DejaVuSans-32"/>
       <use x="63.623047" xlink:href="#DejaVuSans-30"/>
       <use x="127.246094" xlink:href="#DejaVuSans-30"/>
      </g>
     </g>
    </g>
    <g id="xtick_6">
     <g id="line2d_9">
      <g>
       <use style="stroke:#000000;stroke-width:0.8;" x="399.791106" xlink:href="#m5611f7db55" y="307.584"/>
      </g>
     </g>
     <g id="text_7">
      <!-- 250 -->
      <g transform="translate(390.247356 322.182437)scale(0.1 -0.1)">
       <use xlink:href="#DejaVuSans-32"/>
       <use x="63.623047" xlink:href="#DejaVuSans-35"/>
       <use x="127.246094" xlink:href="#DejaVuSans-30"/>
      </g>
     </g>
    </g>
    <g id="text_8">
     <!-- Wave number -->
     <defs>
      <path d="M 3.328125 72.90625 
L 13.28125 72.90625 
L 28.609375 11.28125 
L 43.890625 72.90625 
L 54.984375 72.90625 
L 70.3125 11.28125 
L 85.59375 72.90625 
L 95.609375 72.90625 
L 77.296875 0 
L 64.890625 0 
L 49.515625 63.28125 
L 33.984375 0 
L 21.578125 0 
z
" id="DejaVuSans-57"/>
      <path d="M 34.28125 27.484375 
Q 23.390625 27.484375 19.1875 25 
Q 14.984375 22.515625 14.984375 16.5 
Q 14.984375 11.71875 18.140625 8.90625 
Q 21.296875 6.109375 26.703125 6.109375 
Q 34.1875 6.109375 38.703125 11.40625 
Q 43.21875 16.703125 43.21875 25.484375 
L 43.21875 27.484375 
z
M 52.203125 31.203125 
L 52.203125 0 
L 43.21875 0 
L 43.21875 8.296875 
Q 40.140625 3.328125 35.546875 0.953125 
Q 30.953125 -1.421875 24.3125 -1.421875 
Q 15.921875 -1.421875 10.953125 3.296875 
Q 6 8.015625 6 15.921875 
Q 6 25.140625 12.171875 29.828125 
Q 18.359375 34.515625 30.609375 34.515625 
L 43.21875 34.515625 
L 43.21875 35.40625 
Q 43.21875 41.609375 39.140625 45 
Q 35.0625 48.390625 27.6875 48.390625 
Q 23 48.390625 18.546875 47.265625 
Q 14.109375 46.140625 10.015625 43.890625 
L 10.015625 52.203125 
Q 14.9375 54.109375 19.578125 55.046875 
Q 24.21875 56 28.609375 56 
Q 40.484375 56 46.34375 49.84375 
Q 52.203125 43.703125 52.203125 31.203125 
z
" id="DejaVuSans-61"/>
      <path d="M 2.984375 54.6875 
L 12.5 54.6875 
L 29.59375 8.796875 
L 46.6875 54.6875 
L 56.203125 54.6875 
L 35.6875 0 
L 23.484375 0 
z
" id="DejaVuSans-76"/>
      <path d="M 56.203125 29.59375 
L 56.203125 25.203125 
L 14.890625 25.203125 
Q 15.484375 15.921875 20.484375 11.0625 
Q 25.484375 6.203125 34.421875 6.203125 
Q 39.59375 6.203125 44.453125 7.46875 
Q 49.3125 8.734375 54.109375 11.28125 
L 54.109375 2.78125 
Q 49.265625 0.734375 44.1875 -0.34375 
Q 39.109375 -1.421875 33.890625 -1.421875 
Q 20.796875 -1.421875 13.15625 6.1875 
Q 5.515625 13.8125 5.515625 26.8125 
Q 5.515625 40.234375 12.765625 48.109375 
Q 20.015625 56 32.328125 56 
Q 43.359375 56 49.78125 48.890625 
Q 56.203125 41.796875 56.203125 29.59375 
z
M 47.21875 32.234375 
Q 47.125 39.59375 43.09375 43.984375 
Q 39.0625 48.390625 32.421875 48.390625 
Q 24.90625 48.390625 20.390625 44.140625 
Q 15.875 39.890625 15.1875 32.171875 
z
" id="DejaVuSans-65"/>
      <path d="M 54.890625 33.015625 
L 54.890625 0 
L 45.90625 0 
L 45.90625 32.71875 
Q 45.90625 40.484375 42.875 44.328125 
Q 39.84375 48.1875 33.796875 48.1875 
Q 26.515625 48.1875 22.3125 43.546875 
Q 18.109375 38.921875 18.109375 30.90625 
L 18.109375 0 
L 9.078125 0 
L 9.078125 54.6875 
L 18.109375 54.6875 
L 18.109375 46.1875 
Q 21.34375 51.125 25.703125 53.5625 
Q 30.078125 56 35.796875 56 
Q 45.21875 56 50.046875 50.171875 
Q 54.890625 44.34375 54.890625 33.015625 
z
" id="DejaVuSans-6e"/>
      <path d="M 8.5 21.578125 
L 8.5 54.6875 
L 17.484375 54.6875 
L 17.484375 21.921875 
Q 17.484375 14.15625 20.5 10.265625 
Q 23.53125 6.390625 29.59375 6.390625 
Q 36.859375 6.390625 41.078125 11.03125 
Q 45.3125 15.671875 45.3125 23.6875 
L 45.3125 54.6875 
L 54.296875 54.6875 
L 54.296875 0 
L 45.3125 0 
L 45.3125 8.40625 
Q 42.046875 3.421875 37.71875 1 
Q 33.40625 -1.421875 27.6875 -1.421875 
Q 18.265625 -1.421875 13.375 4.4375 
Q 8.5 10.296875 8.5 21.578125 
z
M 31.109375 56 
z
" id="DejaVuSans-75"/>
      <path d="M 52 44.1875 
Q 55.375 50.25 60.0625 53.125 
Q 64.75 56 71.09375 56 
Q 79.640625 56 84.28125 50.015625 
Q 88.921875 44.046875 88.921875 33.015625 
L 88.921875 0 
L 79.890625 0 
L 79.890625 32.71875 
Q 79.890625 40.578125 77.09375 44.375 
Q 74.3125 48.1875 68.609375 48.1875 
Q 61.625 48.1875 57.5625 43.546875 
Q 53.515625 38.921875 53.515625 30.90625 
L 53.515625 0 
L 44.484375 0 
L 44.484375 32.71875 
Q 44.484375 40.625 41.703125 44.40625 
Q 38.921875 48.1875 33.109375 48.1875 
Q 26.21875 48.1875 22.15625 43.53125 
Q 18.109375 38.875 18.109375 30.90625 
L 18.109375 0 
L 9.078125 0 
L 9.078125 54.6875 
L 18.109375 54.6875 
L 18.109375 46.1875 
Q 21.1875 51.21875 25.484375 53.609375 
Q 29.78125 56 35.6875 56 
Q 41.65625 56 45.828125 52.96875 
Q 50 49.953125 52 44.1875 
z
" id="DejaVuSans-6d"/>
      <path d="M 48.6875 27.296875 
Q 48.6875 37.203125 44.609375 42.84375 
Q 40.53125 48.484375 33.40625 48.484375 
Q 26.265625 48.484375 22.1875 42.84375 
Q 18.109375 37.203125 18.109375 27.296875 
Q 18.109375 17.390625 22.1875 11.75 
Q 26.265625 6.109375 33.40625 6.109375 
Q 40.53125 6.109375 44.609375 11.75 
Q 48.6875 17.390625 48.6875 27.296875 
z
M 18.109375 46.390625 
Q 20.953125 51.265625 25.265625 53.625 
Q 29.59375 56 35.59375 56 
Q 45.5625 56 51.78125 48.09375 
Q 58.015625 40.1875 58.015625 27.296875 
Q 58.015625 14.40625 51.78125 6.484375 
Q 45.5625 -1.421875 35.59375 -1.421875 
Q 29.59375 -1.421875 25.265625 0.953125 
Q 20.953125 3.328125 18.109375 8.203125 
L 18.109375 0 
L 9.078125 0 
L 9.078125 75.984375 
L 18.109375 75.984375 
z
" id="DejaVuSans-62"/>
      <path d="M 41.109375 46.296875 
Q 39.59375 47.171875 37.8125 47.578125 
Q 36.03125 48 33.890625 48 
Q 26.265625 48 22.1875 43.046875 
Q 18.109375 38.09375 18.109375 28.8125 
L 18.109375 0 
L 9.078125 0 
L 9.078125 54.6875 
L 18.109375 54.6875 
L 18.109375 46.1875 
Q 20.953125 51.171875 25.484375 53.578125 
Q 30.03125 56 36.53125 56 
Q 37.453125 56 38.578125 55.875 
Q 39.703125 55.765625 41.0625 55.515625 
z
" id="DejaVuSans-72"/>
     </defs>
     <g transform="translate(201.017812 335.860562)scale(0.1 -0.1)">
      <use xlink:href="#DejaVuSans-57"/>
      <use x="98.783203" xlink:href="#DejaVuSans-61"/>
      <use x="160.0625" xlink:href="#DejaVuSans-76"/>
      <use x="219.242188" xlink:href="#DejaVuSans-65"/>
      <use x="280.765625" xlink:href="#DejaVuSans-20"/>
      <use x="312.552734" xlink:href="#DejaVuSans-6e"/>
      <use x="375.931641" xlink:href="#DejaVuSans-75"/>
      <use x="439.310547" xlink:href="#DejaVuSans-6d"/>
      <use x="536.722656" xlink:href="#DejaVuSans-62"/>
      <use x="600.199219" xlink:href="#DejaVuSans-65"/>
      <use x="661.722656" xlink:href="#DejaVuSans-72"/>
     </g>
    </g>
   </g>
   <g id="line2d_10">
    <path clip-path="url(#pbac68d2431)" d="M 73.832727 250.732394 
L 79.048061 266.901652 
L 81.655728 275.538066 
L 85.567229 288.784577 
L 86.871062 292.563449 
L 88.174896 295.671211 
L 89.478729 298.026406 
L 90.782563 299.670636 
L 92.086396 300.734278 
L 93.39023 301.380093 
L 94.694064 301.752782 
L 97.301731 302.056484 
L 99.909398 302.057116 
L 102.517065 301.797438 
L 103.820898 301.519348 
L 105.124732 301.093181 
L 106.428565 300.475882 
L 107.732399 299.629903 
L 109.036232 298.532823 
L 110.340066 297.177554 
L 111.643899 295.57747 
L 112.947733 293.749694 
L 115.5554 289.506634 
L 118.163067 284.678155 
L 123.378401 274.778135 
L 125.986068 270.466095 
L 128.593735 266.667447 
L 131.201402 263.232544 
L 133.809069 260.256072 
L 135.112903 259.068428 
L 136.416736 258.190414 
L 137.72057 257.673595 
L 139.024403 257.584415 
L 140.328237 257.992055 
L 141.63207 258.876025 
L 142.935904 260.250837 
L 144.239737 262.056516 
L 146.847404 266.499179 
L 149.455071 271.010205 
L 150.758905 272.840801 
L 152.062738 274.153257 
L 153.366572 274.889835 
L 154.670405 274.961056 
L 155.974239 274.347826 
L 157.278072 273.072126 
L 158.581906 271.211672 
L 159.885739 268.867111 
L 162.493406 263.447196 
L 165.101073 258.100233 
L 166.404907 255.752055 
L 167.70874 253.687184 
L 169.012574 251.910341 
L 170.316407 250.431189 
L 171.620241 249.254704 
L 172.924074 248.390279 
L 174.227908 247.851173 
L 175.531742 247.591258 
L 176.835575 247.606821 
L 179.443242 248.001783 
L 182.050909 248.379754 
L 184.658576 248.367994 
L 187.266243 248.283824 
L 188.570077 248.472858 
L 189.87391 248.923987 
L 191.177744 249.67291 
L 192.481577 250.743696 
L 193.785411 252.142465 
L 196.393078 255.607378 
L 208.127579 272.823199 
L 210.735246 276.834456 
L 212.03908 278.551645 
L 213.342913 279.927644 
L 214.646747 280.872457 
L 215.950581 281.303294 
L 217.254414 281.189147 
L 218.558248 280.521973 
L 219.862081 279.325349 
L 221.165915 277.691288 
L 223.773582 273.575277 
L 226.381249 269.455221 
L 227.685082 267.718522 
L 228.988916 266.226169 
L 232.900416 262.23762 
L 234.20425 260.568909 
L 235.508083 258.539299 
L 236.811917 256.163789 
L 240.723417 248.30377 
L 242.027251 246.19698 
L 243.331084 244.646125 
L 244.634918 243.739419 
L 245.938751 243.346894 
L 247.242585 243.368282 
L 251.154085 243.952441 
L 256.369419 244.160456 
L 257.673253 244.541129 
L 258.977087 245.098904 
L 261.584754 246.653754 
L 262.888587 247.427495 
L 264.192421 248.014595 
L 265.496254 248.39361 
L 266.800088 248.431664 
L 268.103921 248.150573 
L 269.407755 247.488238 
L 270.711588 246.459981 
L 272.015422 244.97755 
L 273.319255 243.052478 
L 274.623089 240.769731 
L 277.230756 235.317938 
L 279.838423 229.788867 
L 281.142256 227.416942 
L 282.44609 225.466954 
L 283.749923 223.915555 
L 285.053757 222.718741 
L 287.661424 220.639475 
L 290.269091 218.225837 
L 294.180591 214.433069 
L 295.484425 213.493132 
L 296.788258 212.888533 
L 298.092092 212.566014 
L 303.307426 212.101604 
L 304.61126 211.801157 
L 311.130427 209.481119 
L 312.434261 209.261628 
L 315.041928 209.116958 
L 317.649595 209.015395 
L 318.953428 208.890931 
L 320.257262 208.647939 
L 321.561095 208.234767 
L 325.472596 206.292203 
L 328.080263 205.084071 
L 329.384096 204.716845 
L 330.68793 204.474878 
L 333.295597 204.42843 
L 335.903264 204.349068 
L 337.207097 204.06554 
L 338.510931 203.566357 
L 339.814765 202.860497 
L 343.726265 200.445519 
L 345.030099 199.893089 
L 346.333932 199.603545 
L 347.637766 199.591294 
L 348.941599 199.880926 
L 350.245433 200.328415 
L 352.8531 201.401407 
L 354.156933 201.796517 
L 355.460767 202.057074 
L 356.7646 202.137181 
L 358.068434 201.926213 
L 359.372267 201.488576 
L 360.676101 200.754165 
L 361.979934 199.682995 
L 364.587601 196.94468 
L 367.195268 194.110893 
L 368.499102 193.112689 
L 369.802935 192.382711 
L 371.106769 192.122182 
L 372.410602 192.166367 
L 373.714436 192.4706 
L 376.322103 193.379132 
L 378.92977 194.068534 
L 384.145104 194.881367 
L 386.752771 194.957389 
L 388.056605 194.801163 
L 389.360438 194.473084 
L 393.271939 192.78513 
L 394.575772 192.546505 
L 395.879606 192.881769 
L 397.183439 193.914575 
L 398.487273 195.845572 
L 398.487273 195.845572 
" style="fill:none;stroke:#1f77b4;stroke-linecap:square;stroke-width:1.5;"/>
   </g>
   <g id="patch_9">
    <path d="M 57.6 307.584 
L 57.6 186.624 
" style="fill:none;stroke:#000000;stroke-linecap:square;stroke-linejoin:miter;stroke-width:0.8;"/>
   </g>
   <g id="patch_10">
    <path d="M 414.72 307.584 
L 414.72 186.624 
" style="fill:none;stroke:#000000;stroke-linecap:square;stroke-linejoin:miter;stroke-width:0.8;"/>
   </g>
   <g id="patch_11">
    <path d="M 57.6 307.584 
L 414.72 307.584 
" style="fill:none;stroke:#000000;stroke-linecap:square;stroke-linejoin:miter;stroke-width:0.8;"/>
   </g>
   <g id="patch_12">
    <path d="M 57.6 186.624 
L 414.72 186.624 
" style="fill:none;stroke:#000000;stroke-linecap:square;stroke-linejoin:miter;stroke-width:0.8;"/>
   </g>
   <g id="legend_2">
    <g id="patch_13">
     <path d="M 64.6 209.302125 
L 157.335938 209.302125 
Q 159.335938 209.302125 159.335938 207.302125 
L 159.335938 193.624 
Q 159.335938 191.624 157.335938 191.624 
L 64.6 191.624 
Q 62.6 191.624 62.6 193.624 
L 62.6 207.302125 
Q 62.6 209.302125 64.6 209.302125 
z
" style="fill:#ffffff;opacity:0.8;stroke:#cccccc;stroke-linejoin:miter;"/>
    </g>
    <g id="line2d_11">
     <path d="M 66.6 199.722437 
L 86.6 199.722437 
" style="fill:none;stroke:#1f77b4;stroke-linecap:square;stroke-width:1.5;"/>
    </g>
    <g id="line2d_12"/>
    <g id="text_9">
     <!-- NMF GPP 1d -->
     <defs>
      <path d="M 59.515625 10.40625 
L 59.515625 29.984375 
L 43.40625 29.984375 
L 43.40625 38.09375 
L 69.28125 38.09375 
L 69.28125 6.78125 
Q 63.578125 2.734375 56.6875 0.65625 
Q 49.8125 -1.421875 42 -1.421875 
Q 24.90625 -1.421875 15.25 8.5625 
Q 5.609375 18.5625 5.609375 36.375 
Q 5.609375 54.25 15.25 64.234375 
Q 24.90625 74.21875 42 74.21875 
Q 49.125 74.21875 55.546875 72.453125 
Q 61.96875 70.703125 67.390625 67.28125 
L 67.390625 56.78125 
Q 61.921875 61.421875 55.765625 63.765625 
Q 49.609375 66.109375 42.828125 66.109375 
Q 29.4375 66.109375 22.71875 58.640625 
Q 16.015625 51.171875 16.015625 36.375 
Q 16.015625 21.625 22.71875 14.15625 
Q 29.4375 6.6875 42.828125 6.6875 
Q 48.046875 6.6875 52.140625 7.59375 
Q 56.25 8.5 59.515625 10.40625 
z
" id="DejaVuSans-47"/>
      <path d="M 19.671875 64.796875 
L 19.671875 37.40625 
L 32.078125 37.40625 
Q 38.96875 37.40625 42.71875 40.96875 
Q 46.484375 44.53125 46.484375 51.125 
Q 46.484375 57.671875 42.71875 61.234375 
Q 38.96875 64.796875 32.078125 64.796875 
z
M 9.8125 72.90625 
L 32.078125 72.90625 
Q 44.34375 72.90625 50.609375 67.359375 
Q 56.890625 61.8125 56.890625 51.125 
Q 56.890625 40.328125 50.609375 34.8125 
Q 44.34375 29.296875 32.078125 29.296875 
L 19.671875 29.296875 
L 19.671875 0 
L 9.8125 0 
z
" id="DejaVuSans-50"/>
      <path d="M 45.40625 46.390625 
L 45.40625 75.984375 
L 54.390625 75.984375 
L 54.390625 0 
L 45.40625 0 
L 45.40625 8.203125 
Q 42.578125 3.328125 38.25 0.953125 
Q 33.9375 -1.421875 27.875 -1.421875 
Q 17.96875 -1.421875 11.734375 6.484375 
Q 5.515625 14.40625 5.515625 27.296875 
Q 5.515625 40.1875 11.734375 48.09375 
Q 17.96875 56 27.875 56 
Q 33.9375 56 38.25 53.625 
Q 42.578125 51.265625 45.40625 46.390625 
z
M 14.796875 27.296875 
Q 14.796875 17.390625 18.875 11.75 
Q 22.953125 6.109375 30.078125 6.109375 
Q 37.203125 6.109375 41.296875 11.75 
Q 45.40625 17.390625 45.40625 27.296875 
Q 45.40625 37.203125 41.296875 42.84375 
Q 37.203125 48.484375 30.078125 48.484375 
Q 22.953125 48.484375 18.875 42.84375 
Q 14.796875 37.203125 14.796875 27.296875 
z
" id="DejaVuSans-64"/>
     </defs>
     <g transform="translate(94.6 203.222437)scale(0.1 -0.1)">
      <use xlink:href="#DejaVuSans-4e"/>
      <use x="74.804688" xlink:href="#DejaVuSans-4d"/>
      <use x="161.083984" xlink:href="#DejaVuSans-46"/>
      <use x="218.603516" xlink:href="#DejaVuSans-20"/>
      <use x="250.390625" xlink:href="#DejaVuSans-47"/>
      <use x="327.880859" xlink:href="#DejaVuSans-50"/>
      <use x="388.183594" xlink:href="#DejaVuSans-50"/>
      <use x="448.486328" xlink:href="#DejaVuSans-20"/>
      <use x="480.273438" xlink:href="#DejaVuSans-31"/>
      <use x="543.896484" xlink:href="#DejaVuSans-64"/>
     </g>
    </g>
   </g>
  </g>
 </g>
 <defs>
  <clipPath id="peccc1ef124">
   <rect height="120.96" width="357.12" x="57.6" y="41.472"/>
  </clipPath>
  <clipPath id="pbac68d2431">
   <rect height="120.96" width="357.12" x="57.6" y="186.624"/>
  </clipPath>
 </defs>
</svg>
