<?xml version="1.0" encoding="utf-8" standalone="no"?>
<!DOCTYPE svg PUBLIC "-//W3C//DTD SVG 1.1//EN"
  "http://www.w3.org/Graphics/SVG/1.1/DTD/svg11.dtd">
<!-- Created with matplotlib (http://matplotlib.org/) -->
<svg height="345.6pt" version="1.1" viewBox="0 0 460.8 345.6" width="460.8pt" xmlns="http://www.w3.org/2000/svg" xmlns:xlink="http://www.w3.org/1999/xlink">
 <defs>
  <style type="text/css">
*{stroke-linecap:butt;stroke-linejoin:round;}
  </style>
 </defs>
 <g id="figure_1">
  <g id="patch_1">
   <path d="M 0 345.6 
L 460.8 345.6 
L 460.8 0 
L 0 0 
z
" style="fill:#ffffff;"/>
  </g>
  <g id="axes_1">
   <g id="patch_2">
    <path d="M 57.6 119.740235 
L 414.72 119.740235 
L 414.72 41.472 
L 57.6 41.472 
z
" style="fill:#ffffff;"/>
   </g>
   <g id="line2d_1">
    <path clip-path="url(#pf7cae2a201)" d="M 73.832727 99.924088 
L 75.136561 95.618309 
L 76.440394 90.694257 
L 79.048061 79.341917 
L 82.959562 61.23177 
L 84.263395 55.907112 
L 85.567229 51.402122 
L 86.871062 47.966858 
L 88.174896 45.800023 
L 89.478729 45.029647 
L 90.782563 45.700207 
L 92.086396 47.768074 
L 93.39023 51.105954 
L 94.694064 55.515661 
L 95.997897 60.747373 
L 98.605564 72.558841 
L 101.213231 84.387276 
L 102.517065 89.767261 
L 103.820898 94.601419 
L 105.124732 98.814388 
L 106.428565 102.37945 
L 107.732399 105.310244 
L 109.036232 107.650656 
L 110.340066 109.464367 
L 111.643899 110.825236 
L 112.947733 111.809309 
L 114.251566 112.488812 
L 115.5554 112.92817 
L 116.859233 113.181813 
L 119.4669 113.295933 
L 122.074567 113.05745 
L 124.682234 112.54755 
L 127.289901 111.72068 
L 128.593735 111.139881 
L 129.897568 110.404886 
L 131.201402 109.472767 
L 132.505235 108.292204 
L 133.809069 106.804832 
L 135.112903 104.947837 
L 136.416736 102.658001 
L 137.72057 99.877256 
L 139.024403 96.559544 
L 140.328237 92.678605 
L 141.63207 88.236131 
L 142.935904 83.269749 
L 145.543571 72.139686 
L 148.151238 60.578527 
L 149.455071 55.302194 
L 150.758905 50.831253 
L 152.062738 47.544973 
L 153.366572 45.770192 
L 154.670405 45.698984 
L 155.974239 47.329663 
L 157.278072 50.467241 
L 158.581906 54.783064 
L 161.189573 65.444784 
L 163.79724 76.650739 
L 166.404907 86.642105 
L 167.70874 90.883141 
L 169.012574 94.556265 
L 170.316407 97.659451 
L 171.620241 100.218452 
L 172.924074 102.278642 
L 174.227908 103.897235 
L 175.531742 105.136442 
L 176.835575 106.057968 
L 178.139409 106.719017 
L 179.443242 107.1698 
L 180.747076 107.452336 
L 183.354743 107.639359 
L 185.96241 107.460362 
L 188.570077 107.001337 
L 191.177744 106.284838 
L 193.785411 105.292131 
L 196.393078 103.975742 
L 199.000745 102.265748 
L 201.608412 100.073666 
L 202.912245 98.76518 
L 204.216079 97.296984 
L 205.519912 95.655308 
L 206.823746 93.826755 
L 208.127579 91.798947 
L 210.735246 87.106891 
L 213.342913 81.544536 
L 215.950581 75.199886 
L 221.165915 61.821062 
L 222.469748 58.947504 
L 223.773582 56.557229 
L 225.077415 54.798213 
L 226.381249 53.78462 
L 227.685082 53.57504 
L 228.988916 54.159892 
L 230.292749 55.462627 
L 231.596583 57.354225 
L 232.900416 59.675675 
L 239.419584 72.51504 
L 240.723417 74.587112 
L 242.027251 76.350527 
L 243.331084 77.775407 
L 244.634918 78.840443 
L 245.938751 79.530105 
L 247.242585 79.832739 
L 248.546418 79.739451 
L 249.850252 79.243713 
L 251.154085 78.341671 
L 252.457919 77.033251 
L 253.761752 75.324233 
L 255.065586 73.229578 
L 256.369419 70.778275 
L 258.977087 65.032531 
L 261.584754 58.872509 
L 262.888587 56.056056 
L 264.192421 53.709934 
L 265.496254 52.065022 
L 266.800088 51.315919 
L 268.103921 51.58025 
L 269.407755 52.871219 
L 270.711588 55.095374 
L 272.015422 58.076648 
L 274.623089 65.432039 
L 278.534589 77.096834 
L 281.142256 83.978897 
L 283.749923 89.784133 
L 285.053757 92.280451 
L 286.35759 94.522228 
L 287.661424 96.526998 
L 288.965257 98.314181 
L 290.269091 99.903854 
L 292.876758 102.56957 
L 295.484425 104.672547 
L 298.092092 106.340583 
L 300.699759 107.677479 
L 303.307426 108.763787 
L 305.915093 109.659896 
L 309.826594 110.740844 
L 313.738094 111.592394 
L 318.953428 112.478023 
L 325.472596 113.308162 
L 333.295597 114.034832 
L 342.422432 114.642871 
L 354.156933 115.188329 
L 369.802935 115.670832 
L 390.664272 116.074177 
L 398.487273 116.182588 
L 398.487273 116.182588 
" style="fill:none;stroke:#1f77b4;stroke-linecap:square;stroke-width:1.5;"/>
   </g>
   <g id="patch_3">
    <path d="M 57.6 119.740235 
L 57.6 41.472 
" style="fill:none;stroke:#000000;stroke-linecap:square;stroke-linejoin:miter;stroke-width:0.8;"/>
   </g>
   <g id="patch_4">
    <path d="M 414.72 119.740235 
L 414.72 41.472 
" style="fill:none;stroke:#000000;stroke-linecap:square;stroke-linejoin:miter;stroke-width:0.8;"/>
   </g>
   <g id="patch_5">
    <path d="M 57.6 119.740235 
L 414.72 119.740235 
" style="fill:none;stroke:#000000;stroke-linecap:square;stroke-linejoin:miter;stroke-width:0.8;"/>
   </g>
   <g id="patch_6">
    <path d="M 57.6 41.472 
L 414.72 41.472 
" style="fill:none;stroke:#000000;stroke-linecap:square;stroke-linejoin:miter;stroke-width:0.8;"/>
   </g>
   <g id="legend_1">
    <g id="patch_7">
     <path d="M 302.535625 64.150125 
L 407.72 64.150125 
Q 409.72 64.150125 409.72 62.150125 
L 409.72 48.472 
Q 409.72 46.472 407.72 46.472 
L 302.535625 46.472 
Q 300.535625 46.472 300.535625 48.472 
L 300.535625 62.150125 
Q 300.535625 64.150125 302.535625 64.150125 
z
" style="fill:#ffffff;opacity:0.8;stroke:#cccccc;stroke-linejoin:miter;"/>
    </g>
    <g id="line2d_2">
     <path d="M 304.535625 54.570438 
L 324.535625 54.570438 
" style="fill:none;stroke:#1f77b4;stroke-linecap:square;stroke-width:1.5;"/>
    </g>
    <g id="line2d_3"/>
    <g id="text_1">
     <!-- True spectrum -->
     <defs>
      <path d="M -0.296875 72.90625 
L 61.375 72.90625 
L 61.375 64.59375 
L 35.5 64.59375 
L 35.5 0 
L 25.59375 0 
L 25.59375 64.59375 
L -0.296875 64.59375 
z
" id="DejaVuSans-54"/>
      <path d="M 41.109375 46.296875 
Q 39.59375 47.171875 37.8125 47.578125 
Q 36.03125 48 33.890625 48 
Q 26.265625 48 22.1875 43.046875 
Q 18.109375 38.09375 18.109375 28.8125 
L 18.109375 0 
L 9.078125 0 
L 9.078125 54.6875 
L 18.109375 54.6875 
L 18.109375 46.1875 
Q 20.953125 51.171875 25.484375 53.578125 
Q 30.03125 56 36.53125 56 
Q 37.453125 56 38.578125 55.875 
Q 39.703125 55.765625 41.0625 55.515625 
z
" id="DejaVuSans-72"/>
      <path d="M 8.5 21.578125 
L 8.5 54.6875 
L 17.484375 54.6875 
L 17.484375 21.921875 
Q 17.484375 14.15625 20.5 10.265625 
Q 23.53125 6.390625 29.59375 6.390625 
Q 36.859375 6.390625 41.078125 11.03125 
Q 45.3125 15.671875 45.3125 23.6875 
L 45.3125 54.6875 
L 54.296875 54.6875 
L 54.296875 0 
L 45.3125 0 
L 45.3125 8.40625 
Q 42.046875 3.421875 37.71875 1 
Q 33.40625 -1.421875 27.6875 -1.421875 
Q 18.265625 -1.421875 13.375 4.4375 
Q 8.5 10.296875 8.5 21.578125 
z
M 31.109375 56 
z
" id="DejaVuSans-75"/>
      <path d="M 56.203125 29.59375 
L 56.203125 25.203125 
L 14.890625 25.203125 
Q 15.484375 15.921875 20.484375 11.0625 
Q 25.484375 6.203125 34.421875 6.203125 
Q 39.59375 6.203125 44.453125 7.46875 
Q 49.3125 8.734375 54.109375 11.28125 
L 54.109375 2.78125 
Q 49.265625 0.734375 44.1875 -0.34375 
Q 39.109375 -1.421875 33.890625 -1.421875 
Q 20.796875 -1.421875 13.15625 6.1875 
Q 5.515625 13.8125 5.515625 26.8125 
Q 5.515625 40.234375 12.765625 48.109375 
Q 20.015625 56 32.328125 56 
Q 43.359375 56 49.78125 48.890625 
Q 56.203125 41.796875 56.203125 29.59375 
z
M 47.21875 32.234375 
Q 47.125 39.59375 43.09375 43.984375 
Q 39.0625 48.390625 32.421875 48.390625 
Q 24.90625 48.390625 20.390625 44.140625 
Q 15.875 39.890625 15.1875 32.171875 
z
" id="DejaVuSans-65"/>
      <path id="DejaVuSans-20"/>
      <path d="M 44.28125 53.078125 
L 44.28125 44.578125 
Q 40.484375 46.53125 36.375 47.5 
Q 32.28125 48.484375 27.875 48.484375 
Q 21.1875 48.484375 17.84375 46.4375 
Q 14.5 44.390625 14.5 40.28125 
Q 14.5 37.15625 16.890625 35.375 
Q 19.28125 33.59375 26.515625 31.984375 
L 29.59375 31.296875 
Q 39.15625 29.25 43.1875 25.515625 
Q 47.21875 21.78125 47.21875 15.09375 
Q 47.21875 7.46875 41.1875 3.015625 
Q 35.15625 -1.421875 24.609375 -1.421875 
Q 20.21875 -1.421875 15.453125 -0.5625 
Q 10.6875 0.296875 5.421875 2 
L 5.421875 11.28125 
Q 10.40625 8.6875 15.234375 7.390625 
Q 20.0625 6.109375 24.8125 6.109375 
Q 31.15625 6.109375 34.5625 8.28125 
Q 37.984375 10.453125 37.984375 14.40625 
Q 37.984375 18.0625 35.515625 20.015625 
Q 33.0625 21.96875 24.703125 23.78125 
L 21.578125 24.515625 
Q 13.234375 26.265625 9.515625 29.90625 
Q 5.8125 33.546875 5.8125 39.890625 
Q 5.8125 47.609375 11.28125 51.796875 
Q 16.75 56 26.8125 56 
Q 31.78125 56 36.171875 55.265625 
Q 40.578125 54.546875 44.28125 53.078125 
z
" id="DejaVuSans-73"/>
      <path d="M 18.109375 8.203125 
L 18.109375 -20.796875 
L 9.078125 -20.796875 
L 9.078125 54.6875 
L 18.109375 54.6875 
L 18.109375 46.390625 
Q 20.953125 51.265625 25.265625 53.625 
Q 29.59375 56 35.59375 56 
Q 45.5625 56 51.78125 48.09375 
Q 58.015625 40.1875 58.015625 27.296875 
Q 58.015625 14.40625 51.78125 6.484375 
Q 45.5625 -1.421875 35.59375 -1.421875 
Q 29.59375 -1.421875 25.265625 0.953125 
Q 20.953125 3.328125 18.109375 8.203125 
z
M 48.6875 27.296875 
Q 48.6875 37.203125 44.609375 42.84375 
Q 40.53125 48.484375 33.40625 48.484375 
Q 26.265625 48.484375 22.1875 42.84375 
Q 18.109375 37.203125 18.109375 27.296875 
Q 18.109375 17.390625 22.1875 11.75 
Q 26.265625 6.109375 33.40625 6.109375 
Q 40.53125 6.109375 44.609375 11.75 
Q 48.6875 17.390625 48.6875 27.296875 
z
" id="DejaVuSans-70"/>
      <path d="M 48.78125 52.59375 
L 48.78125 44.1875 
Q 44.96875 46.296875 41.140625 47.34375 
Q 37.3125 48.390625 33.40625 48.390625 
Q 24.65625 48.390625 19.8125 42.84375 
Q 14.984375 37.3125 14.984375 27.296875 
Q 14.984375 17.28125 19.8125 11.734375 
Q 24.65625 6.203125 33.40625 6.203125 
Q 37.3125 6.203125 41.140625 7.25 
Q 44.96875 8.296875 48.78125 10.40625 
L 48.78125 2.09375 
Q 45.015625 0.34375 40.984375 -0.53125 
Q 36.96875 -1.421875 32.421875 -1.421875 
Q 20.0625 -1.421875 12.78125 6.34375 
Q 5.515625 14.109375 5.515625 27.296875 
Q 5.515625 40.671875 12.859375 48.328125 
Q 20.21875 56 33.015625 56 
Q 37.15625 56 41.109375 55.140625 
Q 45.0625 54.296875 48.78125 52.59375 
z
" id="DejaVuSans-63"/>
      <path d="M 18.3125 70.21875 
L 18.3125 54.6875 
L 36.8125 54.6875 
L 36.8125 47.703125 
L 18.3125 47.703125 
L 18.3125 18.015625 
Q 18.3125 11.328125 20.140625 9.421875 
Q 21.96875 7.515625 27.59375 7.515625 
L 36.8125 7.515625 
L 36.8125 0 
L 27.59375 0 
Q 17.1875 0 13.234375 3.875 
Q 9.28125 7.765625 9.28125 18.015625 
L 9.28125 47.703125 
L 2.6875 47.703125 
L 2.6875 54.6875 
L 9.28125 54.6875 
L 9.28125 70.21875 
z
" id="DejaVuSans-74"/>
      <path d="M 52 44.1875 
Q 55.375 50.25 60.0625 53.125 
Q 64.75 56 71.09375 56 
Q 79.640625 56 84.28125 50.015625 
Q 88.921875 44.046875 88.921875 33.015625 
L 88.921875 0 
L 79.890625 0 
L 79.890625 32.71875 
Q 79.890625 40.578125 77.09375 44.375 
Q 74.3125 48.1875 68.609375 48.1875 
Q 61.625 48.1875 57.5625 43.546875 
Q 53.515625 38.921875 53.515625 30.90625 
L 53.515625 0 
L 44.484375 0 
L 44.484375 32.71875 
Q 44.484375 40.625 41.703125 44.40625 
Q 38.921875 48.1875 33.109375 48.1875 
Q 26.21875 48.1875 22.15625 43.53125 
Q 18.109375 38.875 18.109375 30.90625 
L 18.109375 0 
L 9.078125 0 
L 9.078125 54.6875 
L 18.109375 54.6875 
L 18.109375 46.1875 
Q 21.1875 51.21875 25.484375 53.609375 
Q 29.78125 56 35.6875 56 
Q 41.65625 56 45.828125 52.96875 
Q 50 49.953125 52 44.1875 
z
" id="DejaVuSans-6d"/>
     </defs>
     <g transform="translate(332.535625 58.070438)scale(0.1 -0.1)">
      <use xlink:href="#DejaVuSans-54"/>
      <use x="60.865234" xlink:href="#DejaVuSans-72"/>
      <use x="101.978516" xlink:href="#DejaVuSans-75"/>
      <use x="165.357422" xlink:href="#DejaVuSans-65"/>
      <use x="226.880859" xlink:href="#DejaVuSans-20"/>
      <use x="258.667969" xlink:href="#DejaVuSans-73"/>
      <use x="310.767578" xlink:href="#DejaVuSans-70"/>
      <use x="374.244141" xlink:href="#DejaVuSans-65"/>
      <use x="435.767578" xlink:href="#DejaVuSans-63"/>
      <use x="490.748047" xlink:href="#DejaVuSans-74"/>
      <use x="529.957031" xlink:href="#DejaVuSans-72"/>
      <use x="571.070312" xlink:href="#DejaVuSans-75"/>
      <use x="634.449219" xlink:href="#DejaVuSans-6d"/>
     </g>
    </g>
   </g>
  </g>
  <g id="axes_2">
   <g id="patch_8">
    <path d="M 57.6 213.662118 
L 414.72 213.662118 
L 414.72 135.393882 
L 57.6 135.393882 
z
" style="fill:#ffffff;"/>
   </g>
   <g id="line2d_4">
    <path clip-path="url(#p771c5a7283)" d="M 73.832727 169.116588 
L 75.136561 179.244661 
L 76.440394 182.195517 
L 77.744228 180.692412 
L 79.048061 176.574203 
L 80.351895 186.27954 
L 81.655728 184.184626 
L 82.959562 185.449666 
L 84.263395 190.90688 
L 85.567229 193.553839 
L 86.871062 189.012211 
L 88.174896 183.612129 
L 89.478729 188.395943 
L 90.782563 192.455072 
L 92.086396 199.130275 
L 93.39023 184.820217 
L 94.694064 198.820389 
L 95.997897 203.073896 
L 97.301731 199.865378 
L 98.605564 205.866882 
L 99.909398 208.868615 
L 101.213231 208.884209 
L 102.517065 210.102234 
L 103.820898 208.992512 
L 105.124732 210.06095 
L 109.036232 210.090274 
L 110.340066 208.621601 
L 111.643899 209.309605 
L 112.947733 209.318557 
L 114.251566 209.725787 
L 115.5554 209.906735 
L 116.859233 203.094136 
L 118.163067 207.79994 
L 119.4669 201.532276 
L 120.770734 198.530858 
L 122.074567 190.773102 
L 123.378401 200.151935 
L 124.682234 201.306563 
L 125.986068 203.159712 
L 127.289901 195.297765 
L 128.593735 196.421293 
L 129.897568 199.829696 
L 131.201402 187.778504 
L 132.505235 173.141413 
L 133.809069 175.468216 
L 135.112903 182.64125 
L 136.416736 193.199899 
L 137.72057 185.256438 
L 139.024403 171.508405 
L 140.328237 185.548337 
L 141.63207 184.86208 
L 142.935904 173.334984 
L 144.239737 184.25486 
L 145.543571 178.276932 
L 146.847404 177.248437 
L 148.151238 184.695634 
L 149.455071 186.445094 
L 150.758905 176.152633 
L 152.062738 177.135653 
L 153.366572 179.373911 
L 154.670405 179.046405 
L 155.974239 186.081332 
L 157.278072 199.738036 
L 158.581906 190.596668 
L 159.885739 170.240893 
L 161.189573 188.154349 
L 162.493406 179.201319 
L 163.79724 167.993746 
L 165.101073 172.329553 
L 166.404907 168.074905 
L 167.70874 168.488298 
L 169.012574 176.273774 
L 170.316407 171.584395 
L 171.620241 174.107443 
L 172.924074 169.218643 
L 174.227908 181.841473 
L 175.531742 179.444338 
L 176.835575 174.678014 
L 178.139409 184.967153 
L 179.443242 171.432219 
L 180.747076 177.862001 
L 182.050909 181.560499 
L 183.354743 178.157953 
L 184.658576 176.542791 
L 185.96241 179.205809 
L 187.266243 163.897172 
L 188.570077 175.964377 
L 189.87391 182.619281 
L 191.177744 187.1644 
L 193.785411 172.902475 
L 195.089244 188.862947 
L 196.393078 178.24061 
L 197.696911 182.015553 
L 199.000745 187.884461 
L 200.304578 183.064137 
L 201.608412 201.798747 
L 202.912245 183.620381 
L 204.216079 174.911345 
L 205.519912 193.905004 
L 206.823746 188.679925 
L 208.127579 199.410092 
L 209.431413 183.278797 
L 210.735246 181.715356 
L 212.03908 195.151197 
L 213.342913 202.688623 
L 214.646747 189.215577 
L 215.950581 202.894991 
L 217.254414 198.564071 
L 218.558248 175.516579 
L 219.862081 190.254579 
L 221.165915 183.078232 
L 222.469748 200.231007 
L 223.773582 187.915251 
L 225.077415 189.636987 
L 226.381249 184.472688 
L 227.685082 177.485496 
L 228.988916 176.179998 
L 230.292749 185.532021 
L 231.596583 179.249736 
L 232.900416 193.279004 
L 234.20425 187.575869 
L 235.508083 151.361694 
L 236.811917 170.077516 
L 238.11575 178.320037 
L 239.419584 176.292216 
L 240.723417 168.970293 
L 242.027251 181.98297 
L 243.331084 179.735423 
L 244.634918 170.596285 
L 245.938751 185.156073 
L 247.242585 185.905986 
L 248.546418 178.116067 
L 249.850252 183.147983 
L 251.154085 168.50713 
L 252.457919 173.308874 
L 253.761752 153.230774 
L 255.065586 161.991365 
L 256.369419 167.765736 
L 257.673253 177.296278 
L 258.977087 169.166592 
L 260.28092 186.939442 
L 261.584754 171.252992 
L 262.888587 167.542739 
L 264.192421 166.122395 
L 265.496254 160.977372 
L 266.800088 168.892778 
L 268.103921 175.143499 
L 269.407755 163.925958 
L 270.711588 182.300352 
L 272.015422 160.828928 
L 273.319255 166.562725 
L 274.623089 187.064118 
L 275.926922 161.038042 
L 277.230756 175.145606 
L 278.534589 169.125327 
L 279.838423 185.663156 
L 281.142256 177.751285 
L 282.44609 167.98034 
L 283.749923 172.558475 
L 285.053757 189.26441 
L 286.35759 162.053975 
L 287.661424 159.220714 
L 288.965257 165.709064 
L 290.269091 158.16449 
L 291.572924 155.634866 
L 292.876758 165.597501 
L 294.180591 177.485448 
L 295.484425 181.524 
L 296.788258 148.491827 
L 298.092092 170.155974 
L 300.699759 155.115972 
L 302.003593 163.400717 
L 303.307426 165.140137 
L 304.61126 190.044152 
L 305.915093 155.996873 
L 307.218927 143.75867 
L 308.52276 142.370517 
L 309.826594 179.703351 
L 311.130427 164.764441 
L 312.434261 190.727552 
L 313.738094 147.029238 
L 315.041928 166.274776 
L 316.345761 162.348429 
L 317.649595 180.621784 
L 318.953428 165.076772 
L 320.257262 145.95258 
L 321.561095 171.804935 
L 322.864929 158.987683 
L 324.168762 160.651157 
L 325.472596 180.953999 
L 326.776429 154.203585 
L 328.080263 174.232795 
L 329.384096 170.037896 
L 330.68793 159.371725 
L 331.991763 187.712393 
L 333.295597 139.523234 
L 334.59943 159.18068 
L 335.903264 168.960127 
L 337.207097 149.333666 
L 338.510931 162.278805 
L 339.814765 168.084707 
L 341.118598 158.801247 
L 342.422432 155.157134 
L 343.726265 159.722389 
L 346.333932 171.496338 
L 347.637766 161.787987 
L 348.941599 154.065044 
L 350.245433 161.083143 
L 351.549266 174.002854 
L 352.8531 174.057956 
L 354.156933 192.244601 
L 355.460767 153.664955 
L 356.7646 141.544963 
L 358.068434 158.27946 
L 359.372267 171.571399 
L 360.676101 167.48734 
L 361.979934 183.730256 
L 363.283768 155.982798 
L 364.587601 180.431933 
L 365.891435 150.392372 
L 367.195268 160.662406 
L 368.499102 175.617163 
L 369.802935 187.110688 
L 371.106769 174.54137 
L 372.410602 156.06112 
L 373.714436 157.477725 
L 375.018269 143.476819 
L 376.322103 177.139632 
L 377.625936 157.752069 
L 378.92977 149.89849 
L 380.233604 144.216092 
L 381.537437 173.36545 
L 382.841271 156.540497 
L 384.145104 155.207523 
L 385.448938 173.630359 
L 386.752771 175.849373 
L 388.056605 150.603774 
L 389.360438 173.233164 
L 390.664272 167.484877 
L 391.968105 167.824545 
L 393.271939 151.247222 
L 394.575772 138.951529 
L 395.879606 166.917553 
L 397.183439 171.750411 
L 398.487273 162.05314 
L 398.487273 162.05314 
" style="fill:none;stroke:#1f77b4;stroke-linecap:square;stroke-width:1.5;"/>
   </g>
   <g id="patch_9">
    <path d="M 57.6 213.662118 
L 57.6 135.393882 
" style="fill:none;stroke:#000000;stroke-linecap:square;stroke-linejoin:miter;stroke-width:0.8;"/>
   </g>
   <g id="patch_10">
    <path d="M 414.72 213.662118 
L 414.72 135.393882 
" style="fill:none;stroke:#000000;stroke-linecap:square;stroke-linejoin:miter;stroke-width:0.8;"/>
   </g>
   <g id="patch_11">
    <path d="M 57.6 213.662118 
L 414.72 213.662118 
" style="fill:none;stroke:#000000;stroke-linecap:square;stroke-linejoin:miter;stroke-width:0.8;"/>
   </g>
   <g id="patch_12">
    <path d="M 57.6 135.393882 
L 414.72 135.393882 
" style="fill:none;stroke:#000000;stroke-linecap:square;stroke-linejoin:miter;stroke-width:0.8;"/>
   </g>
   <g id="legend_2">
    <g id="patch_13">
     <path d="M 64.6 158.072007 
L 133.559375 158.072007 
Q 135.559375 158.072007 135.559375 156.072007 
L 135.559375 142.393882 
Q 135.559375 140.393882 133.559375 140.393882 
L 64.6 140.393882 
Q 62.6 140.393882 62.6 142.393882 
L 62.6 156.072007 
Q 62.6 158.072007 64.6 158.072007 
z
" style="fill:#ffffff;opacity:0.8;stroke:#cccccc;stroke-linejoin:miter;"/>
    </g>
    <g id="line2d_5">
     <path d="M 66.6 148.49232 
L 86.6 148.49232 
" style="fill:none;stroke:#1f77b4;stroke-linecap:square;stroke-width:1.5;"/>
    </g>
    <g id="line2d_6"/>
    <g id="text_2">
     <!-- NMF LS -->
     <defs>
      <path d="M 9.8125 72.90625 
L 23.09375 72.90625 
L 55.421875 11.921875 
L 55.421875 72.90625 
L 64.984375 72.90625 
L 64.984375 0 
L 51.703125 0 
L 19.390625 60.984375 
L 19.390625 0 
L 9.8125 0 
z
" id="DejaVuSans-4e"/>
      <path d="M 9.8125 72.90625 
L 24.515625 72.90625 
L 43.109375 23.296875 
L 61.8125 72.90625 
L 76.515625 72.90625 
L 76.515625 0 
L 66.890625 0 
L 66.890625 64.015625 
L 48.09375 14.015625 
L 38.1875 14.015625 
L 19.390625 64.015625 
L 19.390625 0 
L 9.8125 0 
z
" id="DejaVuSans-4d"/>
      <path d="M 9.8125 72.90625 
L 51.703125 72.90625 
L 51.703125 64.59375 
L 19.671875 64.59375 
L 19.671875 43.109375 
L 48.578125 43.109375 
L 48.578125 34.8125 
L 19.671875 34.8125 
L 19.671875 0 
L 9.8125 0 
z
" id="DejaVuSans-46"/>
      <path d="M 9.8125 72.90625 
L 19.671875 72.90625 
L 19.671875 8.296875 
L 55.171875 8.296875 
L 55.171875 0 
L 9.8125 0 
z
" id="DejaVuSans-4c"/>
      <path d="M 53.515625 70.515625 
L 53.515625 60.890625 
Q 47.90625 63.578125 42.921875 64.890625 
Q 37.9375 66.21875 33.296875 66.21875 
Q 25.25 66.21875 20.875 63.09375 
Q 16.5 59.96875 16.5 54.203125 
Q 16.5 49.359375 19.40625 46.890625 
Q 22.3125 44.4375 30.421875 42.921875 
L 36.375 41.703125 
Q 47.40625 39.59375 52.65625 34.296875 
Q 57.90625 29 57.90625 20.125 
Q 57.90625 9.515625 50.796875 4.046875 
Q 43.703125 -1.421875 29.984375 -1.421875 
Q 24.8125 -1.421875 18.96875 -0.25 
Q 13.140625 0.921875 6.890625 3.21875 
L 6.890625 13.375 
Q 12.890625 10.015625 18.65625 8.296875 
Q 24.421875 6.59375 29.984375 6.59375 
Q 38.421875 6.59375 43.015625 9.90625 
Q 47.609375 13.234375 47.609375 19.390625 
Q 47.609375 24.75 44.3125 27.78125 
Q 41.015625 30.8125 33.5 32.328125 
L 27.484375 33.5 
Q 16.453125 35.6875 11.515625 40.375 
Q 6.59375 45.0625 6.59375 53.421875 
Q 6.59375 63.09375 13.40625 68.65625 
Q 20.21875 74.21875 32.171875 74.21875 
Q 37.3125 74.21875 42.625 73.28125 
Q 47.953125 72.359375 53.515625 70.515625 
z
" id="DejaVuSans-53"/>
     </defs>
     <g transform="translate(94.6 151.99232)scale(0.1 -0.1)">
      <use xlink:href="#DejaVuSans-4e"/>
      <use x="74.804688" xlink:href="#DejaVuSans-4d"/>
      <use x="161.083984" xlink:href="#DejaVuSans-46"/>
      <use x="218.603516" xlink:href="#DejaVuSans-20"/>
      <use x="250.390625" xlink:href="#DejaVuSans-4c"/>
      <use x="306.103516" xlink:href="#DejaVuSans-53"/>
     </g>
    </g>
   </g>
  </g>
  <g id="axes_3">
   <g id="patch_14">
    <path d="M 57.6 307.584 
L 414.72 307.584 
L 414.72 229.315765 
L 57.6 229.315765 
z
" style="fill:#ffffff;"/>
   </g>
   <g id="matplotlib.axis_1">
    <g id="xtick_1">
     <g id="line2d_7">
      <defs>
       <path d="M 0 0 
L 0 3.5 
" id="mc0263ca1bb" style="stroke:#000000;stroke-width:0.8;"/>
      </defs>
      <g>
       <use style="stroke:#000000;stroke-width:0.8;" x="73.832727" xlink:href="#mc0263ca1bb" y="307.584"/>
      </g>
     </g>
     <g id="text_3">
      <!-- 0 -->
      <defs>
       <path d="M 31.78125 66.40625 
Q 24.171875 66.40625 20.328125 58.90625 
Q 16.5 51.421875 16.5 36.375 
Q 16.5 21.390625 20.328125 13.890625 
Q 24.171875 6.390625 31.78125 6.390625 
Q 39.453125 6.390625 43.28125 13.890625 
Q 47.125 21.390625 47.125 36.375 
Q 47.125 51.421875 43.28125 58.90625 
Q 39.453125 66.40625 31.78125 66.40625 
z
M 31.78125 74.21875 
Q 44.046875 74.21875 50.515625 64.515625 
Q 56.984375 54.828125 56.984375 36.375 
Q 56.984375 17.96875 50.515625 8.265625 
Q 44.046875 -1.421875 31.78125 -1.421875 
Q 19.53125 -1.421875 13.0625 8.265625 
Q 6.59375 17.96875 6.59375 36.375 
Q 6.59375 54.828125 13.0625 64.515625 
Q 19.53125 74.21875 31.78125 74.21875 
z
" id="DejaVuSans-30"/>
      </defs>
      <g transform="translate(70.651477 322.182437)scale(0.1 -0.1)">
       <use xlink:href="#DejaVuSans-30"/>
      </g>
     </g>
    </g>
    <g id="xtick_2">
     <g id="line2d_8">
      <g>
       <use style="stroke:#000000;stroke-width:0.8;" x="139.024403" xlink:href="#mc0263ca1bb" y="307.584"/>
      </g>
     </g>
     <g id="text_4">
      <!-- 50 -->
      <defs>
       <path d="M 10.796875 72.90625 
L 49.515625 72.90625 
L 49.515625 64.59375 
L 19.828125 64.59375 
L 19.828125 46.734375 
Q 21.96875 47.46875 24.109375 47.828125 
Q 26.265625 48.1875 28.421875 48.1875 
Q 40.625 48.1875 47.75 41.5 
Q 54.890625 34.8125 54.890625 23.390625 
Q 54.890625 11.625 47.5625 5.09375 
Q 40.234375 -1.421875 26.90625 -1.421875 
Q 22.3125 -1.421875 17.546875 -0.640625 
Q 12.796875 0.140625 7.71875 1.703125 
L 7.71875 11.625 
Q 12.109375 9.234375 16.796875 8.0625 
Q 21.484375 6.890625 26.703125 6.890625 
Q 35.15625 6.890625 40.078125 11.328125 
Q 45.015625 15.765625 45.015625 23.390625 
Q 45.015625 31 40.078125 35.4375 
Q 35.15625 39.890625 26.703125 39.890625 
Q 22.75 39.890625 18.8125 39.015625 
Q 14.890625 38.140625 10.796875 36.28125 
z
" id="DejaVuSans-35"/>
      </defs>
      <g transform="translate(132.661903 322.182437)scale(0.1 -0.1)">
       <use xlink:href="#DejaVuSans-35"/>
       <use x="63.623047" xlink:href="#DejaVuSans-30"/>
      </g>
     </g>
    </g>
    <g id="xtick_3">
     <g id="line2d_9">
      <g>
       <use style="stroke:#000000;stroke-width:0.8;" x="204.216079" xlink:href="#mc0263ca1bb" y="307.584"/>
      </g>
     </g>
     <g id="text_5">
      <!-- 100 -->
      <defs>
       <path d="M 12.40625 8.296875 
L 28.515625 8.296875 
L 28.515625 63.921875 
L 10.984375 60.40625 
L 10.984375 69.390625 
L 28.421875 72.90625 
L 38.28125 72.90625 
L 38.28125 8.296875 
L 54.390625 8.296875 
L 54.390625 0 
L 12.40625 0 
z
" id="DejaVuSans-31"/>
      </defs>
      <g transform="translate(194.672329 322.182437)scale(0.1 -0.1)">
       <use xlink:href="#DejaVuSans-31"/>
       <use x="63.623047" xlink:href="#DejaVuSans-30"/>
       <use x="127.246094" xlink:href="#DejaVuSans-30"/>
      </g>
     </g>
    </g>
    <g id="xtick_4">
     <g id="line2d_10">
      <g>
       <use style="stroke:#000000;stroke-width:0.8;" x="269.407755" xlink:href="#mc0263ca1bb" y="307.584"/>
      </g>
     </g>
     <g id="text_6">
      <!-- 150 -->
      <g transform="translate(259.864005 322.182437)scale(0.1 -0.1)">
       <use xlink:href="#DejaVuSans-31"/>
       <use x="63.623047" xlink:href="#DejaVuSans-35"/>
       <use x="127.246094" xlink:href="#DejaVuSans-30"/>
      </g>
     </g>
    </g>
    <g id="xtick_5">
     <g id="line2d_11">
      <g>
       <use style="stroke:#000000;stroke-width:0.8;" x="334.59943" xlink:href="#mc0263ca1bb" y="307.584"/>
      </g>
     </g>
     <g id="text_7">
      <!-- 200 -->
      <defs>
       <path d="M 19.1875 8.296875 
L 53.609375 8.296875 
L 53.609375 0 
L 7.328125 0 
L 7.328125 8.296875 
Q 12.9375 14.109375 22.625 23.890625 
Q 32.328125 33.6875 34.8125 36.53125 
Q 39.546875 41.84375 41.421875 45.53125 
Q 43.3125 49.21875 43.3125 52.78125 
Q 43.3125 58.59375 39.234375 62.25 
Q 35.15625 65.921875 28.609375 65.921875 
Q 23.96875 65.921875 18.8125 64.3125 
Q 13.671875 62.703125 7.8125 59.421875 
L 7.8125 69.390625 
Q 13.765625 71.78125 18.9375 73 
Q 24.125 74.21875 28.421875 74.21875 
Q 39.75 74.21875 46.484375 68.546875 
Q 53.21875 62.890625 53.21875 53.421875 
Q 53.21875 48.921875 51.53125 44.890625 
Q 49.859375 40.875 45.40625 35.40625 
Q 44.1875 33.984375 37.640625 27.21875 
Q 31.109375 20.453125 19.1875 8.296875 
z
" id="DejaVuSans-32"/>
      </defs>
      <g transform="translate(325.05568 322.182437)scale(0.1 -0.1)">
       <use xlink:href="#DejaVuSans-32"/>
       <use x="63.623047" xlink:href="#DejaVuSans-30"/>
       <use x="127.246094" xlink:href="#DejaVuSans-30"/>
      </g>
     </g>
    </g>
    <g id="xtick_6">
     <g id="line2d_12">
      <g>
       <use style="stroke:#000000;stroke-width:0.8;" x="399.791106" xlink:href="#mc0263ca1bb" y="307.584"/>
      </g>
     </g>
     <g id="text_8">
      <!-- 250 -->
      <g transform="translate(390.247356 322.182437)scale(0.1 -0.1)">
       <use xlink:href="#DejaVuSans-32"/>
       <use x="63.623047" xlink:href="#DejaVuSans-35"/>
       <use x="127.246094" xlink:href="#DejaVuSans-30"/>
      </g>
     </g>
    </g>
    <g id="text_9">
     <!-- Wave number -->
     <defs>
      <path d="M 3.328125 72.90625 
L 13.28125 72.90625 
L 28.609375 11.28125 
L 43.890625 72.90625 
L 54.984375 72.90625 
L 70.3125 11.28125 
L 85.59375 72.90625 
L 95.609375 72.90625 
L 77.296875 0 
L 64.890625 0 
L 49.515625 63.28125 
L 33.984375 0 
L 21.578125 0 
z
" id="DejaVuSans-57"/>
      <path d="M 34.28125 27.484375 
Q 23.390625 27.484375 19.1875 25 
Q 14.984375 22.515625 14.984375 16.5 
Q 14.984375 11.71875 18.140625 8.90625 
Q 21.296875 6.109375 26.703125 6.109375 
Q 34.1875 6.109375 38.703125 11.40625 
Q 43.21875 16.703125 43.21875 25.484375 
L 43.21875 27.484375 
z
M 52.203125 31.203125 
L 52.203125 0 
L 43.21875 0 
L 43.21875 8.296875 
Q 40.140625 3.328125 35.546875 0.953125 
Q 30.953125 -1.421875 24.3125 -1.421875 
Q 15.921875 -1.421875 10.953125 3.296875 
Q 6 8.015625 6 15.921875 
Q 6 25.140625 12.171875 29.828125 
Q 18.359375 34.515625 30.609375 34.515625 
L 43.21875 34.515625 
L 43.21875 35.40625 
Q 43.21875 41.609375 39.140625 45 
Q 35.0625 48.390625 27.6875 48.390625 
Q 23 48.390625 18.546875 47.265625 
Q 14.109375 46.140625 10.015625 43.890625 
L 10.015625 52.203125 
Q 14.9375 54.109375 19.578125 55.046875 
Q 24.21875 56 28.609375 56 
Q 40.484375 56 46.34375 49.84375 
Q 52.203125 43.703125 52.203125 31.203125 
z
" id="DejaVuSans-61"/>
      <path d="M 2.984375 54.6875 
L 12.5 54.6875 
L 29.59375 8.796875 
L 46.6875 54.6875 
L 56.203125 54.6875 
L 35.6875 0 
L 23.484375 0 
z
" id="DejaVuSans-76"/>
      <path d="M 54.890625 33.015625 
L 54.890625 0 
L 45.90625 0 
L 45.90625 32.71875 
Q 45.90625 40.484375 42.875 44.328125 
Q 39.84375 48.1875 33.796875 48.1875 
Q 26.515625 48.1875 22.3125 43.546875 
Q 18.109375 38.921875 18.109375 30.90625 
L 18.109375 0 
L 9.078125 0 
L 9.078125 54.6875 
L 18.109375 54.6875 
L 18.109375 46.1875 
Q 21.34375 51.125 25.703125 53.5625 
Q 30.078125 56 35.796875 56 
Q 45.21875 56 50.046875 50.171875 
Q 54.890625 44.34375 54.890625 33.015625 
z
" id="DejaVuSans-6e"/>
      <path d="M 48.6875 27.296875 
Q 48.6875 37.203125 44.609375 42.84375 
Q 40.53125 48.484375 33.40625 48.484375 
Q 26.265625 48.484375 22.1875 42.84375 
Q 18.109375 37.203125 18.109375 27.296875 
Q 18.109375 17.390625 22.1875 11.75 
Q 26.265625 6.109375 33.40625 6.109375 
Q 40.53125 6.109375 44.609375 11.75 
Q 48.6875 17.390625 48.6875 27.296875 
z
M 18.109375 46.390625 
Q 20.953125 51.265625 25.265625 53.625 
Q 29.59375 56 35.59375 56 
Q 45.5625 56 51.78125 48.09375 
Q 58.015625 40.1875 58.015625 27.296875 
Q 58.015625 14.40625 51.78125 6.484375 
Q 45.5625 -1.421875 35.59375 -1.421875 
Q 29.59375 -1.421875 25.265625 0.953125 
Q 20.953125 3.328125 18.109375 8.203125 
L 18.109375 0 
L 9.078125 0 
L 9.078125 75.984375 
L 18.109375 75.984375 
z
" id="DejaVuSans-62"/>
     </defs>
     <g transform="translate(201.017812 335.860562)scale(0.1 -0.1)">
      <use xlink:href="#DejaVuSans-57"/>
      <use x="98.783203" xlink:href="#DejaVuSans-61"/>
      <use x="160.0625" xlink:href="#DejaVuSans-76"/>
      <use x="219.242188" xlink:href="#DejaVuSans-65"/>
      <use x="280.765625" xlink:href="#DejaVuSans-20"/>
      <use x="312.552734" xlink:href="#DejaVuSans-6e"/>
      <use x="375.931641" xlink:href="#DejaVuSans-75"/>
      <use x="439.310547" xlink:href="#DejaVuSans-6d"/>
      <use x="536.722656" xlink:href="#DejaVuSans-62"/>
      <use x="600.199219" xlink:href="#DejaVuSans-65"/>
      <use x="661.722656" xlink:href="#DejaVuSans-72"/>
     </g>
    </g>
   </g>
   <g id="line2d_13">
    <path clip-path="url(#p9da69cbcc1)" d="M 73.832727 283.331814 
L 75.136561 279.90996 
L 76.440394 275.855488 
L 77.744228 271.208476 
L 80.351895 260.625847 
L 82.959562 249.858368 
L 84.263395 245.123531 
L 85.567229 241.244233 
L 86.871062 238.470232 
L 88.174896 237.006224 
L 89.478729 236.987424 
L 90.782563 238.468903 
L 92.086396 241.393081 
L 93.39023 245.648087 
L 94.694064 251.017159 
L 97.301731 263.896532 
L 99.909398 277.257146 
L 101.213231 283.26083 
L 102.517065 288.46694 
L 103.820898 292.754794 
L 105.124732 296.123059 
L 106.428565 298.649502 
L 107.732399 300.473653 
L 109.036232 301.751397 
L 110.340066 302.62496 
L 111.643899 303.211507 
L 112.947733 303.596378 
L 115.5554 303.974882 
L 118.163067 304.000729 
L 120.770734 303.694474 
L 122.074567 303.376261 
L 123.378401 302.906028 
L 124.682234 302.243032 
L 125.986068 301.346298 
L 127.289901 300.187755 
L 128.593735 298.766285 
L 131.201402 295.298455 
L 136.416736 287.568725 
L 137.72057 285.43055 
L 139.024403 282.979294 
L 140.328237 280.041882 
L 141.63207 276.451549 
L 142.935904 272.102901 
L 144.239737 266.993786 
L 146.847404 255.152174 
L 148.151238 249.143806 
L 149.455071 243.715285 
L 150.758905 239.354285 
L 152.062738 236.402606 
L 153.366572 235.098501 
L 154.670405 235.416599 
L 155.974239 237.186899 
L 157.278072 240.135554 
L 158.581906 243.99112 
L 161.189573 253.250131 
L 165.101073 267.870333 
L 166.404907 272.296693 
L 167.70874 276.282651 
L 169.012574 279.740813 
L 170.316407 282.619765 
L 171.620241 284.896462 
L 172.924074 286.589323 
L 174.227908 287.743118 
L 175.531742 288.417937 
L 176.835575 288.700655 
L 178.139409 288.676475 
L 180.747076 288.148338 
L 183.354743 287.686122 
L 184.658576 287.666991 
L 187.266243 288.053197 
L 189.87391 288.543961 
L 191.177744 288.595293 
L 192.481577 288.41894 
L 193.785411 287.982785 
L 195.089244 287.289218 
L 197.696911 285.344252 
L 200.304578 283.294082 
L 201.608412 282.457698 
L 204.216079 281.203987 
L 205.519912 280.611271 
L 206.823746 279.839262 
L 208.127579 278.734312 
L 209.431413 277.146858 
L 210.735246 274.995232 
L 212.03908 272.258105 
L 213.342913 269.014051 
L 217.254414 258.427513 
L 218.558248 255.499499 
L 219.862081 253.177052 
L 221.165915 251.491435 
L 222.469748 250.301197 
L 225.077415 248.655211 
L 227.685082 246.948811 
L 230.292749 245.118479 
L 231.596583 244.547097 
L 232.900416 244.476039 
L 234.20425 245.093293 
L 235.508083 246.43793 
L 236.811917 248.462743 
L 238.11575 250.976275 
L 240.723417 256.587237 
L 242.027251 259.135175 
L 243.331084 261.208941 
L 244.634918 262.669535 
L 245.938751 263.411544 
L 247.242585 263.425835 
L 248.546418 262.727423 
L 249.850252 261.405356 
L 251.154085 259.589248 
L 253.761752 255.166281 
L 256.369419 250.727076 
L 261.584754 242.582679 
L 265.496254 235.664483 
L 266.800088 233.845131 
L 268.103921 232.873412 
L 269.407755 233.085026 
L 270.711588 234.71501 
L 272.015422 237.724317 
L 273.319255 241.897541 
L 278.534589 261.591566 
L 279.838423 265.472744 
L 281.142256 268.658099 
L 282.44609 271.218597 
L 283.749923 273.270295 
L 285.053757 274.947947 
L 286.35759 276.354121 
L 287.661424 277.560557 
L 288.965257 278.604725 
L 290.269091 279.491857 
L 291.572924 280.214976 
L 292.876758 280.754814 
L 294.180591 281.129373 
L 296.788258 281.545114 
L 299.395926 281.972953 
L 300.699759 282.346252 
L 303.307426 283.455596 
L 305.915093 284.662028 
L 307.218927 285.075528 
L 308.52276 285.261161 
L 309.826594 285.179989 
L 311.130427 284.830471 
L 312.434261 284.26303 
L 316.345761 282.289341 
L 317.649595 281.97317 
L 318.953428 281.998137 
L 320.257262 282.375237 
L 321.561095 283.063331 
L 324.168762 284.94352 
L 326.776429 286.734873 
L 328.080263 287.391554 
L 329.384096 287.850206 
L 330.68793 288.117942 
L 331.991763 288.228108 
L 334.59943 288.143068 
L 338.510931 287.709043 
L 341.118598 287.203371 
L 343.726265 286.3054 
L 346.333932 284.969432 
L 348.941599 283.534178 
L 350.245433 282.985204 
L 351.549266 282.677149 
L 352.8531 282.688713 
L 354.156933 283.059453 
L 355.460767 283.78737 
L 356.7646 284.823971 
L 359.372267 287.440596 
L 361.979934 290.062325 
L 363.283768 291.151952 
L 364.587601 292.023724 
L 365.891435 292.655401 
L 367.195268 293.042261 
L 368.499102 293.195238 
L 369.802935 293.124538 
L 371.106769 292.855878 
L 372.410602 292.410122 
L 375.018269 291.106045 
L 380.233604 287.969602 
L 381.537437 287.376564 
L 382.841271 286.956403 
L 384.145104 286.753942 
L 385.448938 286.770658 
L 386.752771 287.001302 
L 388.056605 287.415127 
L 390.664272 288.578982 
L 393.271939 289.822073 
L 395.879606 290.791813 
L 398.487273 291.348281 
L 398.487273 291.348281 
" style="fill:none;stroke:#1f77b4;stroke-linecap:square;stroke-width:1.5;"/>
   </g>
   <g id="patch_15">
    <path d="M 57.6 307.584 
L 57.6 229.315765 
" style="fill:none;stroke:#000000;stroke-linecap:square;stroke-linejoin:miter;stroke-width:0.8;"/>
   </g>
   <g id="patch_16">
    <path d="M 414.72 307.584 
L 414.72 229.315765 
" style="fill:none;stroke:#000000;stroke-linecap:square;stroke-linejoin:miter;stroke-width:0.8;"/>
   </g>
   <g id="patch_17">
    <path d="M 57.6 307.584 
L 414.72 307.584 
" style="fill:none;stroke:#000000;stroke-linecap:square;stroke-linejoin:miter;stroke-width:0.8;"/>
   </g>
   <g id="patch_18">
    <path d="M 57.6 229.315765 
L 414.72 229.315765 
" style="fill:none;stroke:#000000;stroke-linecap:square;stroke-linejoin:miter;stroke-width:0.8;"/>
   </g>
   <g id="legend_3">
    <g id="patch_19">
     <path d="M 314.984062 251.99389 
L 407.72 251.99389 
Q 409.72 251.99389 409.72 249.99389 
L 409.72 236.315765 
Q 409.72 234.315765 407.72 234.315765 
L 314.984062 234.315765 
Q 312.984062 234.315765 312.984062 236.315765 
L 312.984062 249.99389 
Q 312.984062 251.99389 314.984062 251.99389 
z
" style="fill:#ffffff;opacity:0.8;stroke:#cccccc;stroke-linejoin:miter;"/>
    </g>
    <g id="line2d_14">
     <path d="M 316.984062 242.414202 
L 336.984062 242.414202 
" style="fill:none;stroke:#1f77b4;stroke-linecap:square;stroke-width:1.5;"/>
    </g>
    <g id="line2d_15"/>
    <g id="text_10">
     <!-- NMF GPP 1d -->
     <defs>
      <path d="M 59.515625 10.40625 
L 59.515625 29.984375 
L 43.40625 29.984375 
L 43.40625 38.09375 
L 69.28125 38.09375 
L 69.28125 6.78125 
Q 63.578125 2.734375 56.6875 0.65625 
Q 49.8125 -1.421875 42 -1.421875 
Q 24.90625 -1.421875 15.25 8.5625 
Q 5.609375 18.5625 5.609375 36.375 
Q 5.609375 54.25 15.25 64.234375 
Q 24.90625 74.21875 42 74.21875 
Q 49.125 74.21875 55.546875 72.453125 
Q 61.96875 70.703125 67.390625 67.28125 
L 67.390625 56.78125 
Q 61.921875 61.421875 55.765625 63.765625 
Q 49.609375 66.109375 42.828125 66.109375 
Q 29.4375 66.109375 22.71875 58.640625 
Q 16.015625 51.171875 16.015625 36.375 
Q 16.015625 21.625 22.71875 14.15625 
Q 29.4375 6.6875 42.828125 6.6875 
Q 48.046875 6.6875 52.140625 7.59375 
Q 56.25 8.5 59.515625 10.40625 
z
" id="DejaVuSans-47"/>
      <path d="M 19.671875 64.796875 
L 19.671875 37.40625 
L 32.078125 37.40625 
Q 38.96875 37.40625 42.71875 40.96875 
Q 46.484375 44.53125 46.484375 51.125 
Q 46.484375 57.671875 42.71875 61.234375 
Q 38.96875 64.796875 32.078125 64.796875 
z
M 9.8125 72.90625 
L 32.078125 72.90625 
Q 44.34375 72.90625 50.609375 67.359375 
Q 56.890625 61.8125 56.890625 51.125 
Q 56.890625 40.328125 50.609375 34.8125 
Q 44.34375 29.296875 32.078125 29.296875 
L 19.671875 29.296875 
L 19.671875 0 
L 9.8125 0 
z
" id="DejaVuSans-50"/>
      <path d="M 45.40625 46.390625 
L 45.40625 75.984375 
L 54.390625 75.984375 
L 54.390625 0 
L 45.40625 0 
L 45.40625 8.203125 
Q 42.578125 3.328125 38.25 0.953125 
Q 33.9375 -1.421875 27.875 -1.421875 
Q 17.96875 -1.421875 11.734375 6.484375 
Q 5.515625 14.40625 5.515625 27.296875 
Q 5.515625 40.1875 11.734375 48.09375 
Q 17.96875 56 27.875 56 
Q 33.9375 56 38.25 53.625 
Q 42.578125 51.265625 45.40625 46.390625 
z
M 14.796875 27.296875 
Q 14.796875 17.390625 18.875 11.75 
Q 22.953125 6.109375 30.078125 6.109375 
Q 37.203125 6.109375 41.296875 11.75 
Q 45.40625 17.390625 45.40625 27.296875 
Q 45.40625 37.203125 41.296875 42.84375 
Q 37.203125 48.484375 30.078125 48.484375 
Q 22.953125 48.484375 18.875 42.84375 
Q 14.796875 37.203125 14.796875 27.296875 
z
" id="DejaVuSans-64"/>
     </defs>
     <g transform="translate(344.984062 245.914202)scale(0.1 -0.1)">
      <use xlink:href="#DejaVuSans-4e"/>
      <use x="74.804688" xlink:href="#DejaVuSans-4d"/>
      <use x="161.083984" xlink:href="#DejaVuSans-46"/>
      <use x="218.603516" xlink:href="#DejaVuSans-20"/>
      <use x="250.390625" xlink:href="#DejaVuSans-47"/>
      <use x="327.880859" xlink:href="#DejaVuSans-50"/>
      <use x="388.183594" xlink:href="#DejaVuSans-50"/>
      <use x="448.486328" xlink:href="#DejaVuSans-20"/>
      <use x="480.273438" xlink:href="#DejaVuSans-31"/>
      <use x="543.896484" xlink:href="#DejaVuSans-64"/>
     </g>
    </g>
   </g>
  </g>
 </g>
 <defs>
  <clipPath id="pf7cae2a201">
   <rect height="78.268235" width="357.12" x="57.6" y="41.472"/>
  </clipPath>
  <clipPath id="p771c5a7283">
   <rect height="78.268235" width="357.12" x="57.6" y="135.393882"/>
  </clipPath>
  <clipPath id="p9da69cbcc1">
   <rect height="78.268235" width="357.12" x="57.6" y="229.315765"/>
  </clipPath>
 </defs>
</svg>
