<?xml version="1.0" encoding="utf-8" standalone="no"?>
<!DOCTYPE svg PUBLIC "-//W3C//DTD SVG 1.1//EN"
  "http://www.w3.org/Graphics/SVG/1.1/DTD/svg11.dtd">
<!-- Created with matplotlib (http://matplotlib.org/) -->
<svg height="345.6pt" version="1.1" viewBox="0 0 460.8 345.6" width="460.8pt" xmlns="http://www.w3.org/2000/svg" xmlns:xlink="http://www.w3.org/1999/xlink">
 <defs>
  <style type="text/css">
*{stroke-linecap:butt;stroke-linejoin:round;}
  </style>
 </defs>
 <g id="figure_1">
  <g id="patch_1">
   <path d="M 0 345.6 
L 460.8 345.6 
L 460.8 0 
L 0 0 
z
" style="fill:#ffffff;"/>
  </g>
  <g id="axes_1">
   <g id="patch_2">
    <path d="M 57.6 119.740235 
L 414.72 119.740235 
L 414.72 41.472 
L 57.6 41.472 
z
" style="fill:#ffffff;"/>
   </g>
   <g id="line2d_1">
    <path clip-path="url(#pc65f47e888)" d="M 73.832727 111.698378 
L 75.136561 110.951935 
L 76.440394 110.028058 
L 77.744228 108.894388 
L 79.048061 107.517749 
L 80.351895 105.865922 
L 81.655728 103.909815 
L 82.959562 101.625965 
L 84.263395 98.999191 
L 85.567229 96.025195 
L 86.871062 92.712855 
L 89.478729 85.18416 
L 93.39023 72.454765 
L 95.997897 63.95372 
L 98.605564 56.338697 
L 99.909398 53.097221 
L 101.213231 50.339226 
L 102.517065 48.12534 
L 103.820898 46.496091 
L 105.124732 45.467842 
L 106.428565 45.029647 
L 107.732399 45.142999 
L 109.036232 45.746588 
L 110.340066 46.766788 
L 111.643899 48.132089 
L 112.947733 49.787694 
L 114.251566 51.705794 
L 115.5554 53.887735 
L 116.859233 56.356064 
L 118.163067 59.13759 
L 119.4669 62.242585 
L 122.074567 69.293574 
L 127.289901 84.336457 
L 129.897568 90.939792 
L 131.201402 93.844607 
L 132.505235 96.469477 
L 133.809069 98.817403 
L 135.112903 100.898892 
L 136.416736 102.729429 
L 137.72057 104.327614 
L 139.024403 105.713806 
L 140.328237 106.90911 
L 141.63207 107.93461 
L 144.239737 109.557013 
L 146.847404 110.730085 
L 149.455071 111.57766 
L 152.062738 112.195492 
L 155.974239 112.837298 
L 161.189573 113.369176 
L 166.404907 113.67425 
L 172.924074 113.806709 
L 176.835575 113.713653 
L 180.747076 113.370163 
L 183.354743 112.888235 
L 185.96241 112.071077 
L 187.266243 111.488614 
L 188.570077 110.760354 
L 189.87391 109.862497 
L 191.177744 108.771502 
L 192.481577 107.465646 
L 193.785411 105.92688 
L 195.089244 104.14291 
L 196.393078 102.109371 
L 197.696911 99.831945 
L 200.304578 94.629533 
L 206.823746 80.345729 
L 208.127579 77.961111 
L 209.431413 75.993945 
L 210.735246 74.55602 
L 212.03908 73.738743 
L 213.342913 73.598533 
L 214.646747 74.146233 
L 215.950581 75.344941 
L 217.254414 77.117236 
L 218.558248 79.358636 
L 221.165915 84.780851 
L 226.381249 96.445672 
L 228.988916 101.486587 
L 230.292749 103.663589 
L 231.596583 105.593093 
L 232.900416 107.275325 
L 234.20425 108.719406 
L 235.508083 109.941185 
L 236.811917 110.961101 
L 238.11575 111.802215 
L 239.419584 112.488507 
L 242.027251 113.489344 
L 244.634918 114.130829 
L 247.242585 114.542398 
L 251.154085 114.916217 
L 257.673253 115.25317 
L 269.407755 115.573671 
L 288.965257 115.840291 
L 322.864929 116.03808 
L 391.968105 116.175919 
L 398.487273 116.182588 
L 398.487273 116.182588 
" style="fill:none;stroke:#1f77b4;stroke-linecap:square;stroke-width:1.5;"/>
   </g>
   <g id="patch_3">
    <path d="M 57.6 119.740235 
L 57.6 41.472 
" style="fill:none;stroke:#000000;stroke-linecap:square;stroke-linejoin:miter;stroke-width:0.8;"/>
   </g>
   <g id="patch_4">
    <path d="M 414.72 119.740235 
L 414.72 41.472 
" style="fill:none;stroke:#000000;stroke-linecap:square;stroke-linejoin:miter;stroke-width:0.8;"/>
   </g>
   <g id="patch_5">
    <path d="M 57.6 119.740235 
L 414.72 119.740235 
" style="fill:none;stroke:#000000;stroke-linecap:square;stroke-linejoin:miter;stroke-width:0.8;"/>
   </g>
   <g id="patch_6">
    <path d="M 57.6 41.472 
L 414.72 41.472 
" style="fill:none;stroke:#000000;stroke-linecap:square;stroke-linejoin:miter;stroke-width:0.8;"/>
   </g>
   <g id="legend_1">
    <g id="patch_7">
     <path d="M 302.535625 64.150125 
L 407.72 64.150125 
Q 409.72 64.150125 409.72 62.150125 
L 409.72 48.472 
Q 409.72 46.472 407.72 46.472 
L 302.535625 46.472 
Q 300.535625 46.472 300.535625 48.472 
L 300.535625 62.150125 
Q 300.535625 64.150125 302.535625 64.150125 
z
" style="fill:#ffffff;opacity:0.8;stroke:#cccccc;stroke-linejoin:miter;"/>
    </g>
    <g id="line2d_2">
     <path d="M 304.535625 54.570438 
L 324.535625 54.570438 
" style="fill:none;stroke:#1f77b4;stroke-linecap:square;stroke-width:1.5;"/>
    </g>
    <g id="line2d_3"/>
    <g id="text_1">
     <!-- True spectrum -->
     <defs>
      <path d="M -0.296875 72.90625 
L 61.375 72.90625 
L 61.375 64.59375 
L 35.5 64.59375 
L 35.5 0 
L 25.59375 0 
L 25.59375 64.59375 
L -0.296875 64.59375 
z
" id="DejaVuSans-54"/>
      <path d="M 41.109375 46.296875 
Q 39.59375 47.171875 37.8125 47.578125 
Q 36.03125 48 33.890625 48 
Q 26.265625 48 22.1875 43.046875 
Q 18.109375 38.09375 18.109375 28.8125 
L 18.109375 0 
L 9.078125 0 
L 9.078125 54.6875 
L 18.109375 54.6875 
L 18.109375 46.1875 
Q 20.953125 51.171875 25.484375 53.578125 
Q 30.03125 56 36.53125 56 
Q 37.453125 56 38.578125 55.875 
Q 39.703125 55.765625 41.0625 55.515625 
z
" id="DejaVuSans-72"/>
      <path d="M 8.5 21.578125 
L 8.5 54.6875 
L 17.484375 54.6875 
L 17.484375 21.921875 
Q 17.484375 14.15625 20.5 10.265625 
Q 23.53125 6.390625 29.59375 6.390625 
Q 36.859375 6.390625 41.078125 11.03125 
Q 45.3125 15.671875 45.3125 23.6875 
L 45.3125 54.6875 
L 54.296875 54.6875 
L 54.296875 0 
L 45.3125 0 
L 45.3125 8.40625 
Q 42.046875 3.421875 37.71875 1 
Q 33.40625 -1.421875 27.6875 -1.421875 
Q 18.265625 -1.421875 13.375 4.4375 
Q 8.5 10.296875 8.5 21.578125 
z
M 31.109375 56 
z
" id="DejaVuSans-75"/>
      <path d="M 56.203125 29.59375 
L 56.203125 25.203125 
L 14.890625 25.203125 
Q 15.484375 15.921875 20.484375 11.0625 
Q 25.484375 6.203125 34.421875 6.203125 
Q 39.59375 6.203125 44.453125 7.46875 
Q 49.3125 8.734375 54.109375 11.28125 
L 54.109375 2.78125 
Q 49.265625 0.734375 44.1875 -0.34375 
Q 39.109375 -1.421875 33.890625 -1.421875 
Q 20.796875 -1.421875 13.15625 6.1875 
Q 5.515625 13.8125 5.515625 26.8125 
Q 5.515625 40.234375 12.765625 48.109375 
Q 20.015625 56 32.328125 56 
Q 43.359375 56 49.78125 48.890625 
Q 56.203125 41.796875 56.203125 29.59375 
z
M 47.21875 32.234375 
Q 47.125 39.59375 43.09375 43.984375 
Q 39.0625 48.390625 32.421875 48.390625 
Q 24.90625 48.390625 20.390625 44.140625 
Q 15.875 39.890625 15.1875 32.171875 
z
" id="DejaVuSans-65"/>
      <path id="DejaVuSans-20"/>
      <path d="M 44.28125 53.078125 
L 44.28125 44.578125 
Q 40.484375 46.53125 36.375 47.5 
Q 32.28125 48.484375 27.875 48.484375 
Q 21.1875 48.484375 17.84375 46.4375 
Q 14.5 44.390625 14.5 40.28125 
Q 14.5 37.15625 16.890625 35.375 
Q 19.28125 33.59375 26.515625 31.984375 
L 29.59375 31.296875 
Q 39.15625 29.25 43.1875 25.515625 
Q 47.21875 21.78125 47.21875 15.09375 
Q 47.21875 7.46875 41.1875 3.015625 
Q 35.15625 -1.421875 24.609375 -1.421875 
Q 20.21875 -1.421875 15.453125 -0.5625 
Q 10.6875 0.296875 5.421875 2 
L 5.421875 11.28125 
Q 10.40625 8.6875 15.234375 7.390625 
Q 20.0625 6.109375 24.8125 6.109375 
Q 31.15625 6.109375 34.5625 8.28125 
Q 37.984375 10.453125 37.984375 14.40625 
Q 37.984375 18.0625 35.515625 20.015625 
Q 33.0625 21.96875 24.703125 23.78125 
L 21.578125 24.515625 
Q 13.234375 26.265625 9.515625 29.90625 
Q 5.8125 33.546875 5.8125 39.890625 
Q 5.8125 47.609375 11.28125 51.796875 
Q 16.75 56 26.8125 56 
Q 31.78125 56 36.171875 55.265625 
Q 40.578125 54.546875 44.28125 53.078125 
z
" id="DejaVuSans-73"/>
      <path d="M 18.109375 8.203125 
L 18.109375 -20.796875 
L 9.078125 -20.796875 
L 9.078125 54.6875 
L 18.109375 54.6875 
L 18.109375 46.390625 
Q 20.953125 51.265625 25.265625 53.625 
Q 29.59375 56 35.59375 56 
Q 45.5625 56 51.78125 48.09375 
Q 58.015625 40.1875 58.015625 27.296875 
Q 58.015625 14.40625 51.78125 6.484375 
Q 45.5625 -1.421875 35.59375 -1.421875 
Q 29.59375 -1.421875 25.265625 0.953125 
Q 20.953125 3.328125 18.109375 8.203125 
z
M 48.6875 27.296875 
Q 48.6875 37.203125 44.609375 42.84375 
Q 40.53125 48.484375 33.40625 48.484375 
Q 26.265625 48.484375 22.1875 42.84375 
Q 18.109375 37.203125 18.109375 27.296875 
Q 18.109375 17.390625 22.1875 11.75 
Q 26.265625 6.109375 33.40625 6.109375 
Q 40.53125 6.109375 44.609375 11.75 
Q 48.6875 17.390625 48.6875 27.296875 
z
" id="DejaVuSans-70"/>
      <path d="M 48.78125 52.59375 
L 48.78125 44.1875 
Q 44.96875 46.296875 41.140625 47.34375 
Q 37.3125 48.390625 33.40625 48.390625 
Q 24.65625 48.390625 19.8125 42.84375 
Q 14.984375 37.3125 14.984375 27.296875 
Q 14.984375 17.28125 19.8125 11.734375 
Q 24.65625 6.203125 33.40625 6.203125 
Q 37.3125 6.203125 41.140625 7.25 
Q 44.96875 8.296875 48.78125 10.40625 
L 48.78125 2.09375 
Q 45.015625 0.34375 40.984375 -0.53125 
Q 36.96875 -1.421875 32.421875 -1.421875 
Q 20.0625 -1.421875 12.78125 6.34375 
Q 5.515625 14.109375 5.515625 27.296875 
Q 5.515625 40.671875 12.859375 48.328125 
Q 20.21875 56 33.015625 56 
Q 37.15625 56 41.109375 55.140625 
Q 45.0625 54.296875 48.78125 52.59375 
z
" id="DejaVuSans-63"/>
      <path d="M 18.3125 70.21875 
L 18.3125 54.6875 
L 36.8125 54.6875 
L 36.8125 47.703125 
L 18.3125 47.703125 
L 18.3125 18.015625 
Q 18.3125 11.328125 20.140625 9.421875 
Q 21.96875 7.515625 27.59375 7.515625 
L 36.8125 7.515625 
L 36.8125 0 
L 27.59375 0 
Q 17.1875 0 13.234375 3.875 
Q 9.28125 7.765625 9.28125 18.015625 
L 9.28125 47.703125 
L 2.6875 47.703125 
L 2.6875 54.6875 
L 9.28125 54.6875 
L 9.28125 70.21875 
z
" id="DejaVuSans-74"/>
      <path d="M 52 44.1875 
Q 55.375 50.25 60.0625 53.125 
Q 64.75 56 71.09375 56 
Q 79.640625 56 84.28125 50.015625 
Q 88.921875 44.046875 88.921875 33.015625 
L 88.921875 0 
L 79.890625 0 
L 79.890625 32.71875 
Q 79.890625 40.578125 77.09375 44.375 
Q 74.3125 48.1875 68.609375 48.1875 
Q 61.625 48.1875 57.5625 43.546875 
Q 53.515625 38.921875 53.515625 30.90625 
L 53.515625 0 
L 44.484375 0 
L 44.484375 32.71875 
Q 44.484375 40.625 41.703125 44.40625 
Q 38.921875 48.1875 33.109375 48.1875 
Q 26.21875 48.1875 22.15625 43.53125 
Q 18.109375 38.875 18.109375 30.90625 
L 18.109375 0 
L 9.078125 0 
L 9.078125 54.6875 
L 18.109375 54.6875 
L 18.109375 46.1875 
Q 21.1875 51.21875 25.484375 53.609375 
Q 29.78125 56 35.6875 56 
Q 41.65625 56 45.828125 52.96875 
Q 50 49.953125 52 44.1875 
z
" id="DejaVuSans-6d"/>
     </defs>
     <g transform="translate(332.535625 58.070438)scale(0.1 -0.1)">
      <use xlink:href="#DejaVuSans-54"/>
      <use x="60.865234" xlink:href="#DejaVuSans-72"/>
      <use x="101.978516" xlink:href="#DejaVuSans-75"/>
      <use x="165.357422" xlink:href="#DejaVuSans-65"/>
      <use x="226.880859" xlink:href="#DejaVuSans-20"/>
      <use x="258.667969" xlink:href="#DejaVuSans-73"/>
      <use x="310.767578" xlink:href="#DejaVuSans-70"/>
      <use x="374.244141" xlink:href="#DejaVuSans-65"/>
      <use x="435.767578" xlink:href="#DejaVuSans-63"/>
      <use x="490.748047" xlink:href="#DejaVuSans-74"/>
      <use x="529.957031" xlink:href="#DejaVuSans-72"/>
      <use x="571.070312" xlink:href="#DejaVuSans-75"/>
      <use x="634.449219" xlink:href="#DejaVuSans-6d"/>
     </g>
    </g>
   </g>
  </g>
  <g id="axes_2">
   <g id="patch_8">
    <path d="M 57.6 213.662118 
L 414.72 213.662118 
L 414.72 135.393882 
L 57.6 135.393882 
z
" style="fill:#ffffff;"/>
   </g>
   <g id="line2d_4">
    <path clip-path="url(#p77b2b0705c)" d="M 73.832727 206.253145 
L 75.136561 204.95813 
L 76.440394 203.962951 
L 77.744228 202.431907 
L 79.048061 202.202524 
L 80.351895 199.982222 
L 81.655728 197.985198 
L 82.959562 197.415845 
L 84.263395 191.596313 
L 85.567229 189.327845 
L 86.871062 187.968223 
L 88.174896 185.029266 
L 89.478729 177.939128 
L 90.782563 175.984054 
L 92.086396 172.841401 
L 93.39023 168.050409 
L 94.694064 164.028453 
L 95.997897 158.558442 
L 98.605564 149.594321 
L 99.909398 145.711447 
L 101.213231 145.386537 
L 102.517065 141.895119 
L 103.820898 141.623423 
L 105.124732 140.222555 
L 106.428565 139.902295 
L 107.732399 138.951529 
L 109.036232 142.212612 
L 110.340066 142.11922 
L 111.643899 144.133823 
L 112.947733 143.951633 
L 114.251566 143.030513 
L 115.5554 148.424959 
L 116.859233 150.524231 
L 118.163067 153.345363 
L 119.4669 155.494486 
L 120.770734 159.857143 
L 122.074567 166.492962 
L 123.378401 166.024152 
L 124.682234 174.545217 
L 125.986068 174.116524 
L 127.289901 178.836933 
L 128.593735 182.932044 
L 129.897568 185.337352 
L 132.505235 192.755753 
L 133.809069 195.725651 
L 135.112903 195.819766 
L 136.416736 198.069086 
L 137.72057 197.314699 
L 139.024403 199.939471 
L 140.328237 201.734519 
L 141.63207 202.816612 
L 142.935904 204.105173 
L 144.239737 200.582645 
L 145.543571 205.910624 
L 146.847404 204.291231 
L 149.455071 207.0982 
L 150.758905 205.506856 
L 152.062738 204.101777 
L 153.366572 204.983223 
L 154.670405 204.476207 
L 155.974239 205.593174 
L 158.581906 204.996028 
L 159.885739 205.451541 
L 161.189573 208.028628 
L 162.493406 205.726248 
L 163.79724 207.097748 
L 165.101073 204.91865 
L 166.404907 207.467979 
L 167.70874 208.150487 
L 169.012574 205.853864 
L 170.316407 205.9502 
L 171.620241 205.48531 
L 174.227908 207.27277 
L 175.531742 205.781507 
L 176.835575 206.798122 
L 178.139409 207.238953 
L 179.443242 206.607742 
L 180.747076 206.566182 
L 182.050909 206.387429 
L 183.354743 204.321546 
L 184.658576 205.334409 
L 185.96241 203.536094 
L 187.266243 202.893683 
L 188.570077 204.975723 
L 189.87391 200.921117 
L 191.177744 200.596648 
L 192.481577 200.566281 
L 193.785411 198.394527 
L 195.089244 199.556576 
L 196.393078 193.111963 
L 197.696911 193.201687 
L 199.000745 194.510048 
L 200.304578 187.968531 
L 201.608412 184.673413 
L 202.912245 182.264578 
L 205.519912 176.989234 
L 206.823746 175.151945 
L 208.127579 170.642277 
L 209.431413 170.147908 
L 210.735246 168.374506 
L 212.03908 168.449458 
L 213.342913 168.643109 
L 214.646747 169.210879 
L 215.950581 166.250552 
L 218.558248 174.25357 
L 219.862081 172.864949 
L 221.165915 181.383773 
L 222.469748 179.693694 
L 223.773582 184.047175 
L 225.077415 186.240463 
L 226.381249 191.049463 
L 227.685082 195.064831 
L 228.988916 194.247684 
L 230.292749 194.244422 
L 231.596583 196.385378 
L 232.900416 199.344996 
L 234.20425 199.694324 
L 235.508083 203.139688 
L 236.811917 202.92315 
L 238.11575 204.392347 
L 239.419584 203.689362 
L 240.723417 204.79527 
L 242.027251 205.164461 
L 243.331084 203.542704 
L 244.634918 207.541252 
L 245.938751 203.844826 
L 247.242585 207.214228 
L 248.546418 205.345844 
L 249.850252 205.297643 
L 251.154085 207.6334 
L 252.457919 206.948389 
L 253.761752 210.104471 
L 255.065586 207.424061 
L 256.369419 206.881861 
L 257.673253 206.702797 
L 258.977087 203.58231 
L 260.28092 204.884288 
L 261.584754 207.281571 
L 262.888587 205.903033 
L 265.496254 207.205461 
L 266.800088 205.774835 
L 268.103921 206.72924 
L 269.407755 208.625625 
L 270.711588 206.937942 
L 272.015422 205.887267 
L 273.319255 206.12705 
L 274.623089 205.607417 
L 275.926922 207.411929 
L 278.534589 206.62919 
L 279.838423 205.527045 
L 281.142256 203.94309 
L 282.44609 206.718418 
L 283.749923 204.584526 
L 285.053757 206.256994 
L 286.35759 205.513523 
L 287.661424 205.925629 
L 288.965257 204.334007 
L 290.269091 206.671525 
L 291.572924 206.762478 
L 292.876758 204.013415 
L 294.180591 202.806568 
L 295.484425 206.310162 
L 298.092092 205.285077 
L 299.395926 206.337382 
L 300.699759 208.463124 
L 302.003593 205.941396 
L 303.307426 205.469722 
L 304.61126 204.878576 
L 305.915093 205.501231 
L 307.218927 204.934016 
L 308.52276 205.447945 
L 309.826594 206.343076 
L 311.130427 205.807347 
L 312.434261 205.074992 
L 313.738094 207.437175 
L 315.041928 206.054176 
L 316.345761 206.105951 
L 317.649595 204.407733 
L 318.953428 205.23406 
L 320.257262 204.986169 
L 321.561095 205.496213 
L 322.864929 203.049263 
L 324.168762 204.819237 
L 325.472596 204.935851 
L 326.776429 205.170544 
L 328.080263 207.526957 
L 329.384096 205.311115 
L 330.68793 204.245399 
L 331.991763 202.783214 
L 333.295597 207.169771 
L 334.59943 205.775693 
L 335.903264 203.74962 
L 337.207097 206.353618 
L 338.510931 204.835628 
L 339.814765 206.013919 
L 342.422432 205.17914 
L 343.726265 206.078148 
L 345.030099 206.773178 
L 346.333932 204.230084 
L 347.637766 206.716074 
L 348.941599 204.68513 
L 350.245433 206.98861 
L 351.549266 204.368129 
L 352.8531 206.309665 
L 354.156933 203.32594 
L 355.460767 204.029564 
L 356.7646 203.557164 
L 358.068434 204.402563 
L 359.372267 203.480704 
L 360.676101 204.98355 
L 361.979934 200.393496 
L 363.283768 206.475023 
L 364.587601 204.408643 
L 365.891435 204.760114 
L 367.195268 205.302833 
L 368.499102 204.420829 
L 369.802935 206.191365 
L 371.106769 205.55644 
L 372.410602 206.047102 
L 373.714436 201.268148 
L 375.018269 203.830124 
L 376.322103 204.540489 
L 378.92977 205.372673 
L 380.233604 206.669324 
L 381.537437 203.700302 
L 382.841271 206.631113 
L 384.145104 202.385551 
L 385.448938 204.960462 
L 386.752771 203.423226 
L 388.056605 203.188661 
L 389.360438 205.13961 
L 390.664272 203.277758 
L 391.968105 205.310911 
L 393.271939 204.949964 
L 394.575772 205.487615 
L 395.879606 203.868403 
L 397.183439 203.76279 
L 398.487273 205.401357 
L 398.487273 205.401357 
" style="fill:none;stroke:#1f77b4;stroke-linecap:square;stroke-width:1.5;"/>
   </g>
   <g id="patch_9">
    <path d="M 57.6 213.662118 
L 57.6 135.393882 
" style="fill:none;stroke:#000000;stroke-linecap:square;stroke-linejoin:miter;stroke-width:0.8;"/>
   </g>
   <g id="patch_10">
    <path d="M 414.72 213.662118 
L 414.72 135.393882 
" style="fill:none;stroke:#000000;stroke-linecap:square;stroke-linejoin:miter;stroke-width:0.8;"/>
   </g>
   <g id="patch_11">
    <path d="M 57.6 213.662118 
L 414.72 213.662118 
" style="fill:none;stroke:#000000;stroke-linecap:square;stroke-linejoin:miter;stroke-width:0.8;"/>
   </g>
   <g id="patch_12">
    <path d="M 57.6 135.393882 
L 414.72 135.393882 
" style="fill:none;stroke:#000000;stroke-linecap:square;stroke-linejoin:miter;stroke-width:0.8;"/>
   </g>
   <g id="legend_2">
    <g id="patch_13">
     <path d="M 338.760625 158.072007 
L 407.72 158.072007 
Q 409.72 158.072007 409.72 156.072007 
L 409.72 142.393882 
Q 409.72 140.393882 407.72 140.393882 
L 338.760625 140.393882 
Q 336.760625 140.393882 336.760625 142.393882 
L 336.760625 156.072007 
Q 336.760625 158.072007 338.760625 158.072007 
z
" style="fill:#ffffff;opacity:0.8;stroke:#cccccc;stroke-linejoin:miter;"/>
    </g>
    <g id="line2d_5">
     <path d="M 340.760625 148.49232 
L 360.760625 148.49232 
" style="fill:none;stroke:#1f77b4;stroke-linecap:square;stroke-width:1.5;"/>
    </g>
    <g id="line2d_6"/>
    <g id="text_2">
     <!-- NMF LS -->
     <defs>
      <path d="M 9.8125 72.90625 
L 23.09375 72.90625 
L 55.421875 11.921875 
L 55.421875 72.90625 
L 64.984375 72.90625 
L 64.984375 0 
L 51.703125 0 
L 19.390625 60.984375 
L 19.390625 0 
L 9.8125 0 
z
" id="DejaVuSans-4e"/>
      <path d="M 9.8125 72.90625 
L 24.515625 72.90625 
L 43.109375 23.296875 
L 61.8125 72.90625 
L 76.515625 72.90625 
L 76.515625 0 
L 66.890625 0 
L 66.890625 64.015625 
L 48.09375 14.015625 
L 38.1875 14.015625 
L 19.390625 64.015625 
L 19.390625 0 
L 9.8125 0 
z
" id="DejaVuSans-4d"/>
      <path d="M 9.8125 72.90625 
L 51.703125 72.90625 
L 51.703125 64.59375 
L 19.671875 64.59375 
L 19.671875 43.109375 
L 48.578125 43.109375 
L 48.578125 34.8125 
L 19.671875 34.8125 
L 19.671875 0 
L 9.8125 0 
z
" id="DejaVuSans-46"/>
      <path d="M 9.8125 72.90625 
L 19.671875 72.90625 
L 19.671875 8.296875 
L 55.171875 8.296875 
L 55.171875 0 
L 9.8125 0 
z
" id="DejaVuSans-4c"/>
      <path d="M 53.515625 70.515625 
L 53.515625 60.890625 
Q 47.90625 63.578125 42.921875 64.890625 
Q 37.9375 66.21875 33.296875 66.21875 
Q 25.25 66.21875 20.875 63.09375 
Q 16.5 59.96875 16.5 54.203125 
Q 16.5 49.359375 19.40625 46.890625 
Q 22.3125 44.4375 30.421875 42.921875 
L 36.375 41.703125 
Q 47.40625 39.59375 52.65625 34.296875 
Q 57.90625 29 57.90625 20.125 
Q 57.90625 9.515625 50.796875 4.046875 
Q 43.703125 -1.421875 29.984375 -1.421875 
Q 24.8125 -1.421875 18.96875 -0.25 
Q 13.140625 0.921875 6.890625 3.21875 
L 6.890625 13.375 
Q 12.890625 10.015625 18.65625 8.296875 
Q 24.421875 6.59375 29.984375 6.59375 
Q 38.421875 6.59375 43.015625 9.90625 
Q 47.609375 13.234375 47.609375 19.390625 
Q 47.609375 24.75 44.3125 27.78125 
Q 41.015625 30.8125 33.5 32.328125 
L 27.484375 33.5 
Q 16.453125 35.6875 11.515625 40.375 
Q 6.59375 45.0625 6.59375 53.421875 
Q 6.59375 63.09375 13.40625 68.65625 
Q 20.21875 74.21875 32.171875 74.21875 
Q 37.3125 74.21875 42.625 73.28125 
Q 47.953125 72.359375 53.515625 70.515625 
z
" id="DejaVuSans-53"/>
     </defs>
     <g transform="translate(368.760625 151.99232)scale(0.1 -0.1)">
      <use xlink:href="#DejaVuSans-4e"/>
      <use x="74.804688" xlink:href="#DejaVuSans-4d"/>
      <use x="161.083984" xlink:href="#DejaVuSans-46"/>
      <use x="218.603516" xlink:href="#DejaVuSans-20"/>
      <use x="250.390625" xlink:href="#DejaVuSans-4c"/>
      <use x="306.103516" xlink:href="#DejaVuSans-53"/>
     </g>
    </g>
   </g>
  </g>
  <g id="axes_3">
   <g id="patch_14">
    <path d="M 57.6 307.584 
L 414.72 307.584 
L 414.72 229.315765 
L 57.6 229.315765 
z
" style="fill:#ffffff;"/>
   </g>
   <g id="matplotlib.axis_1">
    <g id="xtick_1">
     <g id="line2d_7">
      <defs>
       <path d="M 0 0 
L 0 3.5 
" id="m7d619891f5" style="stroke:#000000;stroke-width:0.8;"/>
      </defs>
      <g>
       <use style="stroke:#000000;stroke-width:0.8;" x="73.832727" xlink:href="#m7d619891f5" y="307.584"/>
      </g>
     </g>
     <g id="text_3">
      <!-- 0 -->
      <defs>
       <path d="M 31.78125 66.40625 
Q 24.171875 66.40625 20.328125 58.90625 
Q 16.5 51.421875 16.5 36.375 
Q 16.5 21.390625 20.328125 13.890625 
Q 24.171875 6.390625 31.78125 6.390625 
Q 39.453125 6.390625 43.28125 13.890625 
Q 47.125 21.390625 47.125 36.375 
Q 47.125 51.421875 43.28125 58.90625 
Q 39.453125 66.40625 31.78125 66.40625 
z
M 31.78125 74.21875 
Q 44.046875 74.21875 50.515625 64.515625 
Q 56.984375 54.828125 56.984375 36.375 
Q 56.984375 17.96875 50.515625 8.265625 
Q 44.046875 -1.421875 31.78125 -1.421875 
Q 19.53125 -1.421875 13.0625 8.265625 
Q 6.59375 17.96875 6.59375 36.375 
Q 6.59375 54.828125 13.0625 64.515625 
Q 19.53125 74.21875 31.78125 74.21875 
z
" id="DejaVuSans-30"/>
      </defs>
      <g transform="translate(70.651477 322.182437)scale(0.1 -0.1)">
       <use xlink:href="#DejaVuSans-30"/>
      </g>
     </g>
    </g>
    <g id="xtick_2">
     <g id="line2d_8">
      <g>
       <use style="stroke:#000000;stroke-width:0.8;" x="139.024403" xlink:href="#m7d619891f5" y="307.584"/>
      </g>
     </g>
     <g id="text_4">
      <!-- 50 -->
      <defs>
       <path d="M 10.796875 72.90625 
L 49.515625 72.90625 
L 49.515625 64.59375 
L 19.828125 64.59375 
L 19.828125 46.734375 
Q 21.96875 47.46875 24.109375 47.828125 
Q 26.265625 48.1875 28.421875 48.1875 
Q 40.625 48.1875 47.75 41.5 
Q 54.890625 34.8125 54.890625 23.390625 
Q 54.890625 11.625 47.5625 5.09375 
Q 40.234375 -1.421875 26.90625 -1.421875 
Q 22.3125 -1.421875 17.546875 -0.640625 
Q 12.796875 0.140625 7.71875 1.703125 
L 7.71875 11.625 
Q 12.109375 9.234375 16.796875 8.0625 
Q 21.484375 6.890625 26.703125 6.890625 
Q 35.15625 6.890625 40.078125 11.328125 
Q 45.015625 15.765625 45.015625 23.390625 
Q 45.015625 31 40.078125 35.4375 
Q 35.15625 39.890625 26.703125 39.890625 
Q 22.75 39.890625 18.8125 39.015625 
Q 14.890625 38.140625 10.796875 36.28125 
z
" id="DejaVuSans-35"/>
      </defs>
      <g transform="translate(132.661903 322.182437)scale(0.1 -0.1)">
       <use xlink:href="#DejaVuSans-35"/>
       <use x="63.623047" xlink:href="#DejaVuSans-30"/>
      </g>
     </g>
    </g>
    <g id="xtick_3">
     <g id="line2d_9">
      <g>
       <use style="stroke:#000000;stroke-width:0.8;" x="204.216079" xlink:href="#m7d619891f5" y="307.584"/>
      </g>
     </g>
     <g id="text_5">
      <!-- 100 -->
      <defs>
       <path d="M 12.40625 8.296875 
L 28.515625 8.296875 
L 28.515625 63.921875 
L 10.984375 60.40625 
L 10.984375 69.390625 
L 28.421875 72.90625 
L 38.28125 72.90625 
L 38.28125 8.296875 
L 54.390625 8.296875 
L 54.390625 0 
L 12.40625 0 
z
" id="DejaVuSans-31"/>
      </defs>
      <g transform="translate(194.672329 322.182437)scale(0.1 -0.1)">
       <use xlink:href="#DejaVuSans-31"/>
       <use x="63.623047" xlink:href="#DejaVuSans-30"/>
       <use x="127.246094" xlink:href="#DejaVuSans-30"/>
      </g>
     </g>
    </g>
    <g id="xtick_4">
     <g id="line2d_10">
      <g>
       <use style="stroke:#000000;stroke-width:0.8;" x="269.407755" xlink:href="#m7d619891f5" y="307.584"/>
      </g>
     </g>
     <g id="text_6">
      <!-- 150 -->
      <g transform="translate(259.864005 322.182437)scale(0.1 -0.1)">
       <use xlink:href="#DejaVuSans-31"/>
       <use x="63.623047" xlink:href="#DejaVuSans-35"/>
       <use x="127.246094" xlink:href="#DejaVuSans-30"/>
      </g>
     </g>
    </g>
    <g id="xtick_5">
     <g id="line2d_11">
      <g>
       <use style="stroke:#000000;stroke-width:0.8;" x="334.59943" xlink:href="#m7d619891f5" y="307.584"/>
      </g>
     </g>
     <g id="text_7">
      <!-- 200 -->
      <defs>
       <path d="M 19.1875 8.296875 
L 53.609375 8.296875 
L 53.609375 0 
L 7.328125 0 
L 7.328125 8.296875 
Q 12.9375 14.109375 22.625 23.890625 
Q 32.328125 33.6875 34.8125 36.53125 
Q 39.546875 41.84375 41.421875 45.53125 
Q 43.3125 49.21875 43.3125 52.78125 
Q 43.3125 58.59375 39.234375 62.25 
Q 35.15625 65.921875 28.609375 65.921875 
Q 23.96875 65.921875 18.8125 64.3125 
Q 13.671875 62.703125 7.8125 59.421875 
L 7.8125 69.390625 
Q 13.765625 71.78125 18.9375 73 
Q 24.125 74.21875 28.421875 74.21875 
Q 39.75 74.21875 46.484375 68.546875 
Q 53.21875 62.890625 53.21875 53.421875 
Q 53.21875 48.921875 51.53125 44.890625 
Q 49.859375 40.875 45.40625 35.40625 
Q 44.1875 33.984375 37.640625 27.21875 
Q 31.109375 20.453125 19.1875 8.296875 
z
" id="DejaVuSans-32"/>
      </defs>
      <g transform="translate(325.05568 322.182437)scale(0.1 -0.1)">
       <use xlink:href="#DejaVuSans-32"/>
       <use x="63.623047" xlink:href="#DejaVuSans-30"/>
       <use x="127.246094" xlink:href="#DejaVuSans-30"/>
      </g>
     </g>
    </g>
    <g id="xtick_6">
     <g id="line2d_12">
      <g>
       <use style="stroke:#000000;stroke-width:0.8;" x="399.791106" xlink:href="#m7d619891f5" y="307.584"/>
      </g>
     </g>
     <g id="text_8">
      <!-- 250 -->
      <g transform="translate(390.247356 322.182437)scale(0.1 -0.1)">
       <use xlink:href="#DejaVuSans-32"/>
       <use x="63.623047" xlink:href="#DejaVuSans-35"/>
       <use x="127.246094" xlink:href="#DejaVuSans-30"/>
      </g>
     </g>
    </g>
    <g id="text_9">
     <!-- Wave number -->
     <defs>
      <path d="M 3.328125 72.90625 
L 13.28125 72.90625 
L 28.609375 11.28125 
L 43.890625 72.90625 
L 54.984375 72.90625 
L 70.3125 11.28125 
L 85.59375 72.90625 
L 95.609375 72.90625 
L 77.296875 0 
L 64.890625 0 
L 49.515625 63.28125 
L 33.984375 0 
L 21.578125 0 
z
" id="DejaVuSans-57"/>
      <path d="M 34.28125 27.484375 
Q 23.390625 27.484375 19.1875 25 
Q 14.984375 22.515625 14.984375 16.5 
Q 14.984375 11.71875 18.140625 8.90625 
Q 21.296875 6.109375 26.703125 6.109375 
Q 34.1875 6.109375 38.703125 11.40625 
Q 43.21875 16.703125 43.21875 25.484375 
L 43.21875 27.484375 
z
M 52.203125 31.203125 
L 52.203125 0 
L 43.21875 0 
L 43.21875 8.296875 
Q 40.140625 3.328125 35.546875 0.953125 
Q 30.953125 -1.421875 24.3125 -1.421875 
Q 15.921875 -1.421875 10.953125 3.296875 
Q 6 8.015625 6 15.921875 
Q 6 25.140625 12.171875 29.828125 
Q 18.359375 34.515625 30.609375 34.515625 
L 43.21875 34.515625 
L 43.21875 35.40625 
Q 43.21875 41.609375 39.140625 45 
Q 35.0625 48.390625 27.6875 48.390625 
Q 23 48.390625 18.546875 47.265625 
Q 14.109375 46.140625 10.015625 43.890625 
L 10.015625 52.203125 
Q 14.9375 54.109375 19.578125 55.046875 
Q 24.21875 56 28.609375 56 
Q 40.484375 56 46.34375 49.84375 
Q 52.203125 43.703125 52.203125 31.203125 
z
" id="DejaVuSans-61"/>
      <path d="M 2.984375 54.6875 
L 12.5 54.6875 
L 29.59375 8.796875 
L 46.6875 54.6875 
L 56.203125 54.6875 
L 35.6875 0 
L 23.484375 0 
z
" id="DejaVuSans-76"/>
      <path d="M 54.890625 33.015625 
L 54.890625 0 
L 45.90625 0 
L 45.90625 32.71875 
Q 45.90625 40.484375 42.875 44.328125 
Q 39.84375 48.1875 33.796875 48.1875 
Q 26.515625 48.1875 22.3125 43.546875 
Q 18.109375 38.921875 18.109375 30.90625 
L 18.109375 0 
L 9.078125 0 
L 9.078125 54.6875 
L 18.109375 54.6875 
L 18.109375 46.1875 
Q 21.34375 51.125 25.703125 53.5625 
Q 30.078125 56 35.796875 56 
Q 45.21875 56 50.046875 50.171875 
Q 54.890625 44.34375 54.890625 33.015625 
z
" id="DejaVuSans-6e"/>
      <path d="M 48.6875 27.296875 
Q 48.6875 37.203125 44.609375 42.84375 
Q 40.53125 48.484375 33.40625 48.484375 
Q 26.265625 48.484375 22.1875 42.84375 
Q 18.109375 37.203125 18.109375 27.296875 
Q 18.109375 17.390625 22.1875 11.75 
Q 26.265625 6.109375 33.40625 6.109375 
Q 40.53125 6.109375 44.609375 11.75 
Q 48.6875 17.390625 48.6875 27.296875 
z
M 18.109375 46.390625 
Q 20.953125 51.265625 25.265625 53.625 
Q 29.59375 56 35.59375 56 
Q 45.5625 56 51.78125 48.09375 
Q 58.015625 40.1875 58.015625 27.296875 
Q 58.015625 14.40625 51.78125 6.484375 
Q 45.5625 -1.421875 35.59375 -1.421875 
Q 29.59375 -1.421875 25.265625 0.953125 
Q 20.953125 3.328125 18.109375 8.203125 
L 18.109375 0 
L 9.078125 0 
L 9.078125 75.984375 
L 18.109375 75.984375 
z
" id="DejaVuSans-62"/>
     </defs>
     <g transform="translate(201.017812 335.860562)scale(0.1 -0.1)">
      <use xlink:href="#DejaVuSans-57"/>
      <use x="98.783203" xlink:href="#DejaVuSans-61"/>
      <use x="160.0625" xlink:href="#DejaVuSans-76"/>
      <use x="219.242188" xlink:href="#DejaVuSans-65"/>
      <use x="280.765625" xlink:href="#DejaVuSans-20"/>
      <use x="312.552734" xlink:href="#DejaVuSans-6e"/>
      <use x="375.931641" xlink:href="#DejaVuSans-75"/>
      <use x="439.310547" xlink:href="#DejaVuSans-6d"/>
      <use x="536.722656" xlink:href="#DejaVuSans-62"/>
      <use x="600.199219" xlink:href="#DejaVuSans-65"/>
      <use x="661.722656" xlink:href="#DejaVuSans-72"/>
     </g>
    </g>
   </g>
   <g id="line2d_13">
    <path clip-path="url(#p282a2f19b7)" d="M 73.832727 300.657289 
L 75.136561 299.93441 
L 76.440394 298.954535 
L 77.744228 297.681925 
L 79.048061 296.092329 
L 80.351895 294.178543 
L 81.655728 291.957947 
L 84.263395 286.720817 
L 86.871062 280.699092 
L 89.478729 274.01058 
L 92.086396 266.594572 
L 94.694064 258.401559 
L 98.605564 245.785206 
L 99.909398 242.056502 
L 101.213231 238.872523 
L 102.517065 236.285018 
L 103.820898 234.438297 
L 105.124732 233.305543 
L 106.428565 232.873412 
L 107.732399 233.038907 
L 109.036232 233.748761 
L 110.340066 234.829027 
L 111.643899 236.283202 
L 112.947733 238.007202 
L 114.251566 240.001595 
L 115.5554 242.316681 
L 116.859233 244.883739 
L 119.4669 250.859419 
L 122.074567 257.804907 
L 128.593735 276.218215 
L 131.201402 282.447873 
L 132.505235 285.105031 
L 133.809069 287.451552 
L 135.112903 289.501053 
L 136.416736 291.299211 
L 139.024403 294.291137 
L 141.63207 296.706249 
L 144.239737 298.636856 
L 145.543571 299.413296 
L 146.847404 300.056208 
L 148.151238 300.56998 
L 150.758905 301.252303 
L 153.366572 301.597274 
L 157.278072 301.819428 
L 162.493406 301.875259 
L 166.404907 301.66543 
L 170.316407 301.457806 
L 174.227908 301.549998 
L 176.835575 301.619998 
L 179.443242 301.437964 
L 180.747076 301.193057 
L 182.050909 300.826158 
L 183.354743 300.331289 
L 185.96241 298.993781 
L 188.570077 297.303823 
L 191.177744 295.340871 
L 192.481577 294.215353 
L 193.785411 292.937066 
L 195.089244 291.453165 
L 196.393078 289.698616 
L 197.696911 287.647951 
L 199.000745 285.285228 
L 201.608412 279.760785 
L 205.519912 271.03584 
L 206.823746 268.50861 
L 208.127579 266.374745 
L 209.431413 264.683269 
L 210.735246 263.491046 
L 212.03908 262.825189 
L 213.342913 262.716322 
L 214.646747 263.195431 
L 215.950581 264.241134 
L 217.254414 265.86885 
L 218.558248 268.003184 
L 219.862081 270.534587 
L 223.773582 279.308367 
L 226.381249 284.862241 
L 227.685082 287.323033 
L 228.988916 289.53951 
L 230.292749 291.530716 
L 231.596583 293.300638 
L 232.900416 294.864402 
L 234.20425 296.232023 
L 235.508083 297.413275 
L 236.811917 298.416838 
L 238.11575 299.258208 
L 240.723417 300.542486 
L 243.331084 301.456672 
L 247.242585 302.481242 
L 251.154085 303.211341 
L 253.761752 303.49579 
L 257.673253 303.655294 
L 264.192421 303.798419 
L 270.711588 304.026353 
L 274.623089 303.86984 
L 278.534589 303.427937 
L 283.749923 302.752496 
L 286.35759 302.584348 
L 288.965257 302.586228 
L 292.876758 302.829605 
L 298.092092 303.183847 
L 302.003593 303.211436 
L 308.52276 302.915225 
L 317.649595 302.590353 
L 331.991763 302.415646 
L 335.903264 302.572722 
L 345.030099 303.405251 
L 347.637766 303.280082 
L 350.245433 302.87021 
L 356.7646 301.402213 
L 358.068434 301.31377 
L 360.676101 301.487466 
L 368.499102 302.650904 
L 372.410602 302.781752 
L 381.537437 302.787129 
L 391.968105 302.577948 
L 397.183439 302.666714 
L 398.487273 302.618699 
L 398.487273 302.618699 
" style="fill:none;stroke:#1f77b4;stroke-linecap:square;stroke-width:1.5;"/>
   </g>
   <g id="patch_15">
    <path d="M 57.6 307.584 
L 57.6 229.315765 
" style="fill:none;stroke:#000000;stroke-linecap:square;stroke-linejoin:miter;stroke-width:0.8;"/>
   </g>
   <g id="patch_16">
    <path d="M 414.72 307.584 
L 414.72 229.315765 
" style="fill:none;stroke:#000000;stroke-linecap:square;stroke-linejoin:miter;stroke-width:0.8;"/>
   </g>
   <g id="patch_17">
    <path d="M 57.6 307.584 
L 414.72 307.584 
" style="fill:none;stroke:#000000;stroke-linecap:square;stroke-linejoin:miter;stroke-width:0.8;"/>
   </g>
   <g id="patch_18">
    <path d="M 57.6 229.315765 
L 414.72 229.315765 
" style="fill:none;stroke:#000000;stroke-linecap:square;stroke-linejoin:miter;stroke-width:0.8;"/>
   </g>
   <g id="legend_3">
    <g id="patch_19">
     <path d="M 314.984062 251.99389 
L 407.72 251.99389 
Q 409.72 251.99389 409.72 249.99389 
L 409.72 236.315765 
Q 409.72 234.315765 407.72 234.315765 
L 314.984062 234.315765 
Q 312.984062 234.315765 312.984062 236.315765 
L 312.984062 249.99389 
Q 312.984062 251.99389 314.984062 251.99389 
z
" style="fill:#ffffff;opacity:0.8;stroke:#cccccc;stroke-linejoin:miter;"/>
    </g>
    <g id="line2d_14">
     <path d="M 316.984062 242.414202 
L 336.984062 242.414202 
" style="fill:none;stroke:#1f77b4;stroke-linecap:square;stroke-width:1.5;"/>
    </g>
    <g id="line2d_15"/>
    <g id="text_10">
     <!-- NMF GPP 1d -->
     <defs>
      <path d="M 59.515625 10.40625 
L 59.515625 29.984375 
L 43.40625 29.984375 
L 43.40625 38.09375 
L 69.28125 38.09375 
L 69.28125 6.78125 
Q 63.578125 2.734375 56.6875 0.65625 
Q 49.8125 -1.421875 42 -1.421875 
Q 24.90625 -1.421875 15.25 8.5625 
Q 5.609375 18.5625 5.609375 36.375 
Q 5.609375 54.25 15.25 64.234375 
Q 24.90625 74.21875 42 74.21875 
Q 49.125 74.21875 55.546875 72.453125 
Q 61.96875 70.703125 67.390625 67.28125 
L 67.390625 56.78125 
Q 61.921875 61.421875 55.765625 63.765625 
Q 49.609375 66.109375 42.828125 66.109375 
Q 29.4375 66.109375 22.71875 58.640625 
Q 16.015625 51.171875 16.015625 36.375 
Q 16.015625 21.625 22.71875 14.15625 
Q 29.4375 6.6875 42.828125 6.6875 
Q 48.046875 6.6875 52.140625 7.59375 
Q 56.25 8.5 59.515625 10.40625 
z
" id="DejaVuSans-47"/>
      <path d="M 19.671875 64.796875 
L 19.671875 37.40625 
L 32.078125 37.40625 
Q 38.96875 37.40625 42.71875 40.96875 
Q 46.484375 44.53125 46.484375 51.125 
Q 46.484375 57.671875 42.71875 61.234375 
Q 38.96875 64.796875 32.078125 64.796875 
z
M 9.8125 72.90625 
L 32.078125 72.90625 
Q 44.34375 72.90625 50.609375 67.359375 
Q 56.890625 61.8125 56.890625 51.125 
Q 56.890625 40.328125 50.609375 34.8125 
Q 44.34375 29.296875 32.078125 29.296875 
L 19.671875 29.296875 
L 19.671875 0 
L 9.8125 0 
z
" id="DejaVuSans-50"/>
      <path d="M 45.40625 46.390625 
L 45.40625 75.984375 
L 54.390625 75.984375 
L 54.390625 0 
L 45.40625 0 
L 45.40625 8.203125 
Q 42.578125 3.328125 38.25 0.953125 
Q 33.9375 -1.421875 27.875 -1.421875 
Q 17.96875 -1.421875 11.734375 6.484375 
Q 5.515625 14.40625 5.515625 27.296875 
Q 5.515625 40.1875 11.734375 48.09375 
Q 17.96875 56 27.875 56 
Q 33.9375 56 38.25 53.625 
Q 42.578125 51.265625 45.40625 46.390625 
z
M 14.796875 27.296875 
Q 14.796875 17.390625 18.875 11.75 
Q 22.953125 6.109375 30.078125 6.109375 
Q 37.203125 6.109375 41.296875 11.75 
Q 45.40625 17.390625 45.40625 27.296875 
Q 45.40625 37.203125 41.296875 42.84375 
Q 37.203125 48.484375 30.078125 48.484375 
Q 22.953125 48.484375 18.875 42.84375 
Q 14.796875 37.203125 14.796875 27.296875 
z
" id="DejaVuSans-64"/>
     </defs>
     <g transform="translate(344.984062 245.914202)scale(0.1 -0.1)">
      <use xlink:href="#DejaVuSans-4e"/>
      <use x="74.804688" xlink:href="#DejaVuSans-4d"/>
      <use x="161.083984" xlink:href="#DejaVuSans-46"/>
      <use x="218.603516" xlink:href="#DejaVuSans-20"/>
      <use x="250.390625" xlink:href="#DejaVuSans-47"/>
      <use x="327.880859" xlink:href="#DejaVuSans-50"/>
      <use x="388.183594" xlink:href="#DejaVuSans-50"/>
      <use x="448.486328" xlink:href="#DejaVuSans-20"/>
      <use x="480.273438" xlink:href="#DejaVuSans-31"/>
      <use x="543.896484" xlink:href="#DejaVuSans-64"/>
     </g>
    </g>
   </g>
  </g>
 </g>
 <defs>
  <clipPath id="pc65f47e888">
   <rect height="78.268235" width="357.12" x="57.6" y="41.472"/>
  </clipPath>
  <clipPath id="p77b2b0705c">
   <rect height="78.268235" width="357.12" x="57.6" y="135.393882"/>
  </clipPath>
  <clipPath id="p282a2f19b7">
   <rect height="78.268235" width="357.12" x="57.6" y="229.315765"/>
  </clipPath>
 </defs>
</svg>
