<?xml version="1.0" encoding="utf-8" standalone="no"?>
<!DOCTYPE svg PUBLIC "-//W3C//DTD SVG 1.1//EN"
  "http://www.w3.org/Graphics/SVG/1.1/DTD/svg11.dtd">
<!-- Created with matplotlib (http://matplotlib.org/) -->
<svg height="345.6pt" version="1.1" viewBox="0 0 460.8 345.6" width="460.8pt" xmlns="http://www.w3.org/2000/svg" xmlns:xlink="http://www.w3.org/1999/xlink">
 <defs>
  <style type="text/css">
*{stroke-linecap:butt;stroke-linejoin:round;}
  </style>
 </defs>
 <g id="figure_1">
  <g id="patch_1">
   <path d="M 0 345.6 
L 460.8 345.6 
L 460.8 0 
L 0 0 
z
" style="fill:#ffffff;"/>
  </g>
  <g id="axes_1">
   <g id="patch_2">
    <path d="M 57.6 119.740235 
L 414.72 119.740235 
L 414.72 41.472 
L 57.6 41.472 
z
" style="fill:#ffffff;"/>
   </g>
   <g id="line2d_1">
    <path clip-path="url(#p47717fd3ab)" d="M 73.832727 99.924088 
L 75.136561 95.618309 
L 76.440394 90.694257 
L 79.048061 79.341917 
L 82.959562 61.23177 
L 84.263395 55.907112 
L 85.567229 51.402122 
L 86.871062 47.966858 
L 88.174896 45.800023 
L 89.478729 45.029647 
L 90.782563 45.700207 
L 92.086396 47.768074 
L 93.39023 51.105954 
L 94.694064 55.515661 
L 95.997897 60.747373 
L 98.605564 72.558841 
L 101.213231 84.387276 
L 102.517065 89.767261 
L 103.820898 94.601419 
L 105.124732 98.814388 
L 106.428565 102.37945 
L 107.732399 105.310244 
L 109.036232 107.650656 
L 110.340066 109.464367 
L 111.643899 110.825236 
L 112.947733 111.809309 
L 114.251566 112.488812 
L 115.5554 112.92817 
L 116.859233 113.181813 
L 119.4669 113.295933 
L 122.074567 113.05745 
L 124.682234 112.54755 
L 127.289901 111.72068 
L 128.593735 111.139881 
L 129.897568 110.404886 
L 131.201402 109.472767 
L 132.505235 108.292204 
L 133.809069 106.804832 
L 135.112903 104.947837 
L 136.416736 102.658001 
L 137.72057 99.877256 
L 139.024403 96.559544 
L 140.328237 92.678605 
L 141.63207 88.236131 
L 142.935904 83.269749 
L 145.543571 72.139686 
L 148.151238 60.578527 
L 149.455071 55.302194 
L 150.758905 50.831253 
L 152.062738 47.544973 
L 153.366572 45.770192 
L 154.670405 45.698984 
L 155.974239 47.329663 
L 157.278072 50.467241 
L 158.581906 54.783064 
L 161.189573 65.444784 
L 163.79724 76.650739 
L 166.404907 86.642105 
L 167.70874 90.883141 
L 169.012574 94.556265 
L 170.316407 97.659451 
L 171.620241 100.218452 
L 172.924074 102.278642 
L 174.227908 103.897235 
L 175.531742 105.136442 
L 176.835575 106.057968 
L 178.139409 106.719017 
L 179.443242 107.1698 
L 180.747076 107.452336 
L 183.354743 107.639359 
L 185.96241 107.460362 
L 188.570077 107.001337 
L 191.177744 106.284838 
L 193.785411 105.292131 
L 196.393078 103.975742 
L 199.000745 102.265748 
L 201.608412 100.073666 
L 202.912245 98.76518 
L 204.216079 97.296984 
L 205.519912 95.655308 
L 206.823746 93.826755 
L 208.127579 91.798947 
L 210.735246 87.106891 
L 213.342913 81.544536 
L 215.950581 75.199886 
L 221.165915 61.821062 
L 222.469748 58.947504 
L 223.773582 56.557229 
L 225.077415 54.798213 
L 226.381249 53.78462 
L 227.685082 53.57504 
L 228.988916 54.159892 
L 230.292749 55.462627 
L 231.596583 57.354225 
L 232.900416 59.675675 
L 239.419584 72.51504 
L 240.723417 74.587112 
L 242.027251 76.350527 
L 243.331084 77.775407 
L 244.634918 78.840443 
L 245.938751 79.530105 
L 247.242585 79.832739 
L 248.546418 79.739451 
L 249.850252 79.243713 
L 251.154085 78.341671 
L 252.457919 77.033251 
L 253.761752 75.324233 
L 255.065586 73.229578 
L 256.369419 70.778275 
L 258.977087 65.032531 
L 261.584754 58.872509 
L 262.888587 56.056056 
L 264.192421 53.709934 
L 265.496254 52.065022 
L 266.800088 51.315919 
L 268.103921 51.58025 
L 269.407755 52.871219 
L 270.711588 55.095374 
L 272.015422 58.076648 
L 274.623089 65.432039 
L 278.534589 77.096834 
L 281.142256 83.978897 
L 283.749923 89.784133 
L 285.053757 92.280451 
L 286.35759 94.522228 
L 287.661424 96.526998 
L 288.965257 98.314181 
L 290.269091 99.903854 
L 292.876758 102.56957 
L 295.484425 104.672547 
L 298.092092 106.340583 
L 300.699759 107.677479 
L 303.307426 108.763787 
L 305.915093 109.659896 
L 309.826594 110.740844 
L 313.738094 111.592394 
L 318.953428 112.478023 
L 325.472596 113.308162 
L 333.295597 114.034832 
L 342.422432 114.642871 
L 354.156933 115.188329 
L 369.802935 115.670832 
L 390.664272 116.074177 
L 398.487273 116.182588 
L 398.487273 116.182588 
" style="fill:none;stroke:#1f77b4;stroke-linecap:square;stroke-width:1.5;"/>
   </g>
   <g id="patch_3">
    <path d="M 57.6 119.740235 
L 57.6 41.472 
" style="fill:none;stroke:#000000;stroke-linecap:square;stroke-linejoin:miter;stroke-width:0.8;"/>
   </g>
   <g id="patch_4">
    <path d="M 414.72 119.740235 
L 414.72 41.472 
" style="fill:none;stroke:#000000;stroke-linecap:square;stroke-linejoin:miter;stroke-width:0.8;"/>
   </g>
   <g id="patch_5">
    <path d="M 57.6 119.740235 
L 414.72 119.740235 
" style="fill:none;stroke:#000000;stroke-linecap:square;stroke-linejoin:miter;stroke-width:0.8;"/>
   </g>
   <g id="patch_6">
    <path d="M 57.6 41.472 
L 414.72 41.472 
" style="fill:none;stroke:#000000;stroke-linecap:square;stroke-linejoin:miter;stroke-width:0.8;"/>
   </g>
   <g id="legend_1">
    <g id="patch_7">
     <path d="M 302.535625 64.150125 
L 407.72 64.150125 
Q 409.72 64.150125 409.72 62.150125 
L 409.72 48.472 
Q 409.72 46.472 407.72 46.472 
L 302.535625 46.472 
Q 300.535625 46.472 300.535625 48.472 
L 300.535625 62.150125 
Q 300.535625 64.150125 302.535625 64.150125 
z
" style="fill:#ffffff;opacity:0.8;stroke:#cccccc;stroke-linejoin:miter;"/>
    </g>
    <g id="line2d_2">
     <path d="M 304.535625 54.570438 
L 324.535625 54.570438 
" style="fill:none;stroke:#1f77b4;stroke-linecap:square;stroke-width:1.5;"/>
    </g>
    <g id="line2d_3"/>
    <g id="text_1">
     <!-- True spectrum -->
     <defs>
      <path d="M -0.296875 72.90625 
L 61.375 72.90625 
L 61.375 64.59375 
L 35.5 64.59375 
L 35.5 0 
L 25.59375 0 
L 25.59375 64.59375 
L -0.296875 64.59375 
z
" id="DejaVuSans-54"/>
      <path d="M 41.109375 46.296875 
Q 39.59375 47.171875 37.8125 47.578125 
Q 36.03125 48 33.890625 48 
Q 26.265625 48 22.1875 43.046875 
Q 18.109375 38.09375 18.109375 28.8125 
L 18.109375 0 
L 9.078125 0 
L 9.078125 54.6875 
L 18.109375 54.6875 
L 18.109375 46.1875 
Q 20.953125 51.171875 25.484375 53.578125 
Q 30.03125 56 36.53125 56 
Q 37.453125 56 38.578125 55.875 
Q 39.703125 55.765625 41.0625 55.515625 
z
" id="DejaVuSans-72"/>
      <path d="M 8.5 21.578125 
L 8.5 54.6875 
L 17.484375 54.6875 
L 17.484375 21.921875 
Q 17.484375 14.15625 20.5 10.265625 
Q 23.53125 6.390625 29.59375 6.390625 
Q 36.859375 6.390625 41.078125 11.03125 
Q 45.3125 15.671875 45.3125 23.6875 
L 45.3125 54.6875 
L 54.296875 54.6875 
L 54.296875 0 
L 45.3125 0 
L 45.3125 8.40625 
Q 42.046875 3.421875 37.71875 1 
Q 33.40625 -1.421875 27.6875 -1.421875 
Q 18.265625 -1.421875 13.375 4.4375 
Q 8.5 10.296875 8.5 21.578125 
z
M 31.109375 56 
z
" id="DejaVuSans-75"/>
      <path d="M 56.203125 29.59375 
L 56.203125 25.203125 
L 14.890625 25.203125 
Q 15.484375 15.921875 20.484375 11.0625 
Q 25.484375 6.203125 34.421875 6.203125 
Q 39.59375 6.203125 44.453125 7.46875 
Q 49.3125 8.734375 54.109375 11.28125 
L 54.109375 2.78125 
Q 49.265625 0.734375 44.1875 -0.34375 
Q 39.109375 -1.421875 33.890625 -1.421875 
Q 20.796875 -1.421875 13.15625 6.1875 
Q 5.515625 13.8125 5.515625 26.8125 
Q 5.515625 40.234375 12.765625 48.109375 
Q 20.015625 56 32.328125 56 
Q 43.359375 56 49.78125 48.890625 
Q 56.203125 41.796875 56.203125 29.59375 
z
M 47.21875 32.234375 
Q 47.125 39.59375 43.09375 43.984375 
Q 39.0625 48.390625 32.421875 48.390625 
Q 24.90625 48.390625 20.390625 44.140625 
Q 15.875 39.890625 15.1875 32.171875 
z
" id="DejaVuSans-65"/>
      <path id="DejaVuSans-20"/>
      <path d="M 44.28125 53.078125 
L 44.28125 44.578125 
Q 40.484375 46.53125 36.375 47.5 
Q 32.28125 48.484375 27.875 48.484375 
Q 21.1875 48.484375 17.84375 46.4375 
Q 14.5 44.390625 14.5 40.28125 
Q 14.5 37.15625 16.890625 35.375 
Q 19.28125 33.59375 26.515625 31.984375 
L 29.59375 31.296875 
Q 39.15625 29.25 43.1875 25.515625 
Q 47.21875 21.78125 47.21875 15.09375 
Q 47.21875 7.46875 41.1875 3.015625 
Q 35.15625 -1.421875 24.609375 -1.421875 
Q 20.21875 -1.421875 15.453125 -0.5625 
Q 10.6875 0.296875 5.421875 2 
L 5.421875 11.28125 
Q 10.40625 8.6875 15.234375 7.390625 
Q 20.0625 6.109375 24.8125 6.109375 
Q 31.15625 6.109375 34.5625 8.28125 
Q 37.984375 10.453125 37.984375 14.40625 
Q 37.984375 18.0625 35.515625 20.015625 
Q 33.0625 21.96875 24.703125 23.78125 
L 21.578125 24.515625 
Q 13.234375 26.265625 9.515625 29.90625 
Q 5.8125 33.546875 5.8125 39.890625 
Q 5.8125 47.609375 11.28125 51.796875 
Q 16.75 56 26.8125 56 
Q 31.78125 56 36.171875 55.265625 
Q 40.578125 54.546875 44.28125 53.078125 
z
" id="DejaVuSans-73"/>
      <path d="M 18.109375 8.203125 
L 18.109375 -20.796875 
L 9.078125 -20.796875 
L 9.078125 54.6875 
L 18.109375 54.6875 
L 18.109375 46.390625 
Q 20.953125 51.265625 25.265625 53.625 
Q 29.59375 56 35.59375 56 
Q 45.5625 56 51.78125 48.09375 
Q 58.015625 40.1875 58.015625 27.296875 
Q 58.015625 14.40625 51.78125 6.484375 
Q 45.5625 -1.421875 35.59375 -1.421875 
Q 29.59375 -1.421875 25.265625 0.953125 
Q 20.953125 3.328125 18.109375 8.203125 
z
M 48.6875 27.296875 
Q 48.6875 37.203125 44.609375 42.84375 
Q 40.53125 48.484375 33.40625 48.484375 
Q 26.265625 48.484375 22.1875 42.84375 
Q 18.109375 37.203125 18.109375 27.296875 
Q 18.109375 17.390625 22.1875 11.75 
Q 26.265625 6.109375 33.40625 6.109375 
Q 40.53125 6.109375 44.609375 11.75 
Q 48.6875 17.390625 48.6875 27.296875 
z
" id="DejaVuSans-70"/>
      <path d="M 48.78125 52.59375 
L 48.78125 44.1875 
Q 44.96875 46.296875 41.140625 47.34375 
Q 37.3125 48.390625 33.40625 48.390625 
Q 24.65625 48.390625 19.8125 42.84375 
Q 14.984375 37.3125 14.984375 27.296875 
Q 14.984375 17.28125 19.8125 11.734375 
Q 24.65625 6.203125 33.40625 6.203125 
Q 37.3125 6.203125 41.140625 7.25 
Q 44.96875 8.296875 48.78125 10.40625 
L 48.78125 2.09375 
Q 45.015625 0.34375 40.984375 -0.53125 
Q 36.96875 -1.421875 32.421875 -1.421875 
Q 20.0625 -1.421875 12.78125 6.34375 
Q 5.515625 14.109375 5.515625 27.296875 
Q 5.515625 40.671875 12.859375 48.328125 
Q 20.21875 56 33.015625 56 
Q 37.15625 56 41.109375 55.140625 
Q 45.0625 54.296875 48.78125 52.59375 
z
" id="DejaVuSans-63"/>
      <path d="M 18.3125 70.21875 
L 18.3125 54.6875 
L 36.8125 54.6875 
L 36.8125 47.703125 
L 18.3125 47.703125 
L 18.3125 18.015625 
Q 18.3125 11.328125 20.140625 9.421875 
Q 21.96875 7.515625 27.59375 7.515625 
L 36.8125 7.515625 
L 36.8125 0 
L 27.59375 0 
Q 17.1875 0 13.234375 3.875 
Q 9.28125 7.765625 9.28125 18.015625 
L 9.28125 47.703125 
L 2.6875 47.703125 
L 2.6875 54.6875 
L 9.28125 54.6875 
L 9.28125 70.21875 
z
" id="DejaVuSans-74"/>
      <path d="M 52 44.1875 
Q 55.375 50.25 60.0625 53.125 
Q 64.75 56 71.09375 56 
Q 79.640625 56 84.28125 50.015625 
Q 88.921875 44.046875 88.921875 33.015625 
L 88.921875 0 
L 79.890625 0 
L 79.890625 32.71875 
Q 79.890625 40.578125 77.09375 44.375 
Q 74.3125 48.1875 68.609375 48.1875 
Q 61.625 48.1875 57.5625 43.546875 
Q 53.515625 38.921875 53.515625 30.90625 
L 53.515625 0 
L 44.484375 0 
L 44.484375 32.71875 
Q 44.484375 40.625 41.703125 44.40625 
Q 38.921875 48.1875 33.109375 48.1875 
Q 26.21875 48.1875 22.15625 43.53125 
Q 18.109375 38.875 18.109375 30.90625 
L 18.109375 0 
L 9.078125 0 
L 9.078125 54.6875 
L 18.109375 54.6875 
L 18.109375 46.1875 
Q 21.1875 51.21875 25.484375 53.609375 
Q 29.78125 56 35.6875 56 
Q 41.65625 56 45.828125 52.96875 
Q 50 49.953125 52 44.1875 
z
" id="DejaVuSans-6d"/>
     </defs>
     <g transform="translate(332.535625 58.070438)scale(0.1 -0.1)">
      <use xlink:href="#DejaVuSans-54"/>
      <use x="60.865234" xlink:href="#DejaVuSans-72"/>
      <use x="101.978516" xlink:href="#DejaVuSans-75"/>
      <use x="165.357422" xlink:href="#DejaVuSans-65"/>
      <use x="226.880859" xlink:href="#DejaVuSans-20"/>
      <use x="258.667969" xlink:href="#DejaVuSans-73"/>
      <use x="310.767578" xlink:href="#DejaVuSans-70"/>
      <use x="374.244141" xlink:href="#DejaVuSans-65"/>
      <use x="435.767578" xlink:href="#DejaVuSans-63"/>
      <use x="490.748047" xlink:href="#DejaVuSans-74"/>
      <use x="529.957031" xlink:href="#DejaVuSans-72"/>
      <use x="571.070312" xlink:href="#DejaVuSans-75"/>
      <use x="634.449219" xlink:href="#DejaVuSans-6d"/>
     </g>
    </g>
   </g>
  </g>
  <g id="axes_2">
   <g id="patch_8">
    <path d="M 57.6 213.662118 
L 414.72 213.662118 
L 414.72 135.393882 
L 57.6 135.393882 
z
" style="fill:#ffffff;"/>
   </g>
   <g id="line2d_4">
    <path clip-path="url(#pd73d1a7f5f)" d="M 73.832727 189.409932 
L 75.136561 185.988078 
L 76.440394 181.933605 
L 77.744228 177.286593 
L 80.351895 166.703965 
L 82.959562 155.936486 
L 84.263395 151.201648 
L 85.567229 147.322351 
L 86.871062 144.54835 
L 88.174896 143.084341 
L 89.478729 143.065541 
L 90.782563 144.547021 
L 92.086396 147.471198 
L 93.39023 151.726205 
L 94.694064 157.095276 
L 97.301731 169.974649 
L 99.909398 183.335263 
L 101.213231 189.338948 
L 102.517065 194.545057 
L 103.820898 198.832911 
L 105.124732 202.201177 
L 106.428565 204.727619 
L 107.732399 206.551771 
L 109.036232 207.829514 
L 110.340066 208.703078 
L 111.643899 209.289624 
L 112.947733 209.674495 
L 115.5554 210.053 
L 118.163067 210.078847 
L 120.770734 209.772591 
L 122.074567 209.454379 
L 123.378401 208.984145 
L 124.682234 208.32115 
L 125.986068 207.424415 
L 127.289901 206.265873 
L 128.593735 204.844403 
L 131.201402 201.376572 
L 136.416736 193.646842 
L 137.72057 191.508668 
L 139.024403 189.057412 
L 140.328237 186.12 
L 141.63207 182.529667 
L 142.935904 178.181018 
L 144.239737 173.071904 
L 146.847404 161.230291 
L 148.151238 155.221923 
L 149.455071 149.793403 
L 150.758905 145.432403 
L 152.062738 142.480724 
L 153.366572 141.176619 
L 154.670405 141.494717 
L 155.974239 143.265017 
L 157.278072 146.213672 
L 158.581906 150.069238 
L 161.189573 159.328249 
L 165.101073 173.948451 
L 166.404907 178.374811 
L 167.70874 182.360768 
L 169.012574 185.81893 
L 170.316407 188.697883 
L 171.620241 190.97458 
L 172.924074 192.66744 
L 174.227908 193.821235 
L 175.531742 194.496054 
L 176.835575 194.778773 
L 178.139409 194.754593 
L 180.747076 194.226456 
L 183.354743 193.764239 
L 184.658576 193.745109 
L 187.266243 194.131314 
L 189.87391 194.622079 
L 191.177744 194.673411 
L 192.481577 194.497058 
L 193.785411 194.060903 
L 195.089244 193.367336 
L 197.696911 191.42237 
L 200.304578 189.3722 
L 201.608412 188.535815 
L 204.216079 187.282105 
L 205.519912 186.689388 
L 206.823746 185.917379 
L 208.127579 184.812429 
L 209.431413 183.224976 
L 210.735246 181.073349 
L 212.03908 178.336223 
L 213.342913 175.092169 
L 217.254414 164.505631 
L 218.558248 161.577617 
L 219.862081 159.255169 
L 221.165915 157.569553 
L 222.469748 156.379314 
L 225.077415 154.733329 
L 227.685082 153.026929 
L 230.292749 151.196597 
L 231.596583 150.625215 
L 232.900416 150.554157 
L 234.20425 151.171411 
L 235.508083 152.516047 
L 236.811917 154.540861 
L 238.11575 157.054392 
L 240.723417 162.665355 
L 242.027251 165.213293 
L 243.331084 167.287059 
L 244.634918 168.747653 
L 245.938751 169.489661 
L 247.242585 169.503953 
L 248.546418 168.805541 
L 249.850252 167.483473 
L 251.154085 165.667366 
L 253.761752 161.244399 
L 256.369419 156.805193 
L 261.584754 148.660797 
L 265.496254 141.742601 
L 266.800088 139.923248 
L 268.103921 138.951529 
L 269.407755 139.163144 
L 270.711588 140.793127 
L 272.015422 143.802435 
L 273.319255 147.975659 
L 278.534589 167.669683 
L 279.838423 171.550862 
L 281.142256 174.736217 
L 282.44609 177.296715 
L 283.749923 179.348412 
L 285.053757 181.026064 
L 286.35759 182.432238 
L 287.661424 183.638675 
L 288.965257 184.682842 
L 290.269091 185.569975 
L 291.572924 186.293094 
L 292.876758 186.832932 
L 294.180591 187.207491 
L 296.788258 187.623232 
L 299.395926 188.051071 
L 300.699759 188.42437 
L 303.307426 189.533714 
L 305.915093 190.740146 
L 307.218927 191.153646 
L 308.52276 191.339279 
L 309.826594 191.258106 
L 311.130427 190.908589 
L 312.434261 190.341148 
L 316.345761 188.367458 
L 317.649595 188.051287 
L 318.953428 188.076255 
L 320.257262 188.453354 
L 321.561095 189.141449 
L 324.168762 191.021638 
L 326.776429 192.812991 
L 328.080263 193.469672 
L 329.384096 193.928323 
L 330.68793 194.196059 
L 331.991763 194.306226 
L 334.59943 194.221185 
L 338.510931 193.787161 
L 341.118598 193.281488 
L 343.726265 192.383518 
L 346.333932 191.04755 
L 348.941599 189.612295 
L 350.245433 189.063322 
L 351.549266 188.755267 
L 352.8531 188.766831 
L 354.156933 189.137571 
L 355.460767 189.865487 
L 356.7646 190.902089 
L 359.372267 193.518714 
L 361.979934 196.140442 
L 363.283768 197.23007 
L 364.587601 198.101841 
L 365.891435 198.733519 
L 367.195268 199.120378 
L 368.499102 199.273356 
L 369.802935 199.202656 
L 371.106769 198.933996 
L 372.410602 198.48824 
L 375.018269 197.184163 
L 380.233604 194.04772 
L 381.537437 193.454681 
L 382.841271 193.03452 
L 384.145104 192.832059 
L 385.448938 192.848775 
L 386.752771 193.07942 
L 388.056605 193.493244 
L 390.664272 194.657099 
L 393.271939 195.90019 
L 395.879606 196.86993 
L 398.487273 197.426399 
L 398.487273 197.426399 
" style="fill:none;stroke:#1f77b4;stroke-linecap:square;stroke-width:1.5;"/>
   </g>
   <g id="patch_9">
    <path d="M 57.6 213.662118 
L 57.6 135.393882 
" style="fill:none;stroke:#000000;stroke-linecap:square;stroke-linejoin:miter;stroke-width:0.8;"/>
   </g>
   <g id="patch_10">
    <path d="M 414.72 213.662118 
L 414.72 135.393882 
" style="fill:none;stroke:#000000;stroke-linecap:square;stroke-linejoin:miter;stroke-width:0.8;"/>
   </g>
   <g id="patch_11">
    <path d="M 57.6 213.662118 
L 414.72 213.662118 
" style="fill:none;stroke:#000000;stroke-linecap:square;stroke-linejoin:miter;stroke-width:0.8;"/>
   </g>
   <g id="patch_12">
    <path d="M 57.6 135.393882 
L 414.72 135.393882 
" style="fill:none;stroke:#000000;stroke-linecap:square;stroke-linejoin:miter;stroke-width:0.8;"/>
   </g>
   <g id="legend_2">
    <g id="patch_13">
     <path d="M 314.984062 158.072007 
L 407.72 158.072007 
Q 409.72 158.072007 409.72 156.072007 
L 409.72 142.393882 
Q 409.72 140.393882 407.72 140.393882 
L 314.984062 140.393882 
Q 312.984062 140.393882 312.984062 142.393882 
L 312.984062 156.072007 
Q 312.984062 158.072007 314.984062 158.072007 
z
" style="fill:#ffffff;opacity:0.8;stroke:#cccccc;stroke-linejoin:miter;"/>
    </g>
    <g id="line2d_5">
     <path d="M 316.984062 148.49232 
L 336.984062 148.49232 
" style="fill:none;stroke:#1f77b4;stroke-linecap:square;stroke-width:1.5;"/>
    </g>
    <g id="line2d_6"/>
    <g id="text_2">
     <!-- NMF GPP 1d -->
     <defs>
      <path d="M 9.8125 72.90625 
L 23.09375 72.90625 
L 55.421875 11.921875 
L 55.421875 72.90625 
L 64.984375 72.90625 
L 64.984375 0 
L 51.703125 0 
L 19.390625 60.984375 
L 19.390625 0 
L 9.8125 0 
z
" id="DejaVuSans-4e"/>
      <path d="M 9.8125 72.90625 
L 24.515625 72.90625 
L 43.109375 23.296875 
L 61.8125 72.90625 
L 76.515625 72.90625 
L 76.515625 0 
L 66.890625 0 
L 66.890625 64.015625 
L 48.09375 14.015625 
L 38.1875 14.015625 
L 19.390625 64.015625 
L 19.390625 0 
L 9.8125 0 
z
" id="DejaVuSans-4d"/>
      <path d="M 9.8125 72.90625 
L 51.703125 72.90625 
L 51.703125 64.59375 
L 19.671875 64.59375 
L 19.671875 43.109375 
L 48.578125 43.109375 
L 48.578125 34.8125 
L 19.671875 34.8125 
L 19.671875 0 
L 9.8125 0 
z
" id="DejaVuSans-46"/>
      <path d="M 59.515625 10.40625 
L 59.515625 29.984375 
L 43.40625 29.984375 
L 43.40625 38.09375 
L 69.28125 38.09375 
L 69.28125 6.78125 
Q 63.578125 2.734375 56.6875 0.65625 
Q 49.8125 -1.421875 42 -1.421875 
Q 24.90625 -1.421875 15.25 8.5625 
Q 5.609375 18.5625 5.609375 36.375 
Q 5.609375 54.25 15.25 64.234375 
Q 24.90625 74.21875 42 74.21875 
Q 49.125 74.21875 55.546875 72.453125 
Q 61.96875 70.703125 67.390625 67.28125 
L 67.390625 56.78125 
Q 61.921875 61.421875 55.765625 63.765625 
Q 49.609375 66.109375 42.828125 66.109375 
Q 29.4375 66.109375 22.71875 58.640625 
Q 16.015625 51.171875 16.015625 36.375 
Q 16.015625 21.625 22.71875 14.15625 
Q 29.4375 6.6875 42.828125 6.6875 
Q 48.046875 6.6875 52.140625 7.59375 
Q 56.25 8.5 59.515625 10.40625 
z
" id="DejaVuSans-47"/>
      <path d="M 19.671875 64.796875 
L 19.671875 37.40625 
L 32.078125 37.40625 
Q 38.96875 37.40625 42.71875 40.96875 
Q 46.484375 44.53125 46.484375 51.125 
Q 46.484375 57.671875 42.71875 61.234375 
Q 38.96875 64.796875 32.078125 64.796875 
z
M 9.8125 72.90625 
L 32.078125 72.90625 
Q 44.34375 72.90625 50.609375 67.359375 
Q 56.890625 61.8125 56.890625 51.125 
Q 56.890625 40.328125 50.609375 34.8125 
Q 44.34375 29.296875 32.078125 29.296875 
L 19.671875 29.296875 
L 19.671875 0 
L 9.8125 0 
z
" id="DejaVuSans-50"/>
      <path d="M 12.40625 8.296875 
L 28.515625 8.296875 
L 28.515625 63.921875 
L 10.984375 60.40625 
L 10.984375 69.390625 
L 28.421875 72.90625 
L 38.28125 72.90625 
L 38.28125 8.296875 
L 54.390625 8.296875 
L 54.390625 0 
L 12.40625 0 
z
" id="DejaVuSans-31"/>
      <path d="M 45.40625 46.390625 
L 45.40625 75.984375 
L 54.390625 75.984375 
L 54.390625 0 
L 45.40625 0 
L 45.40625 8.203125 
Q 42.578125 3.328125 38.25 0.953125 
Q 33.9375 -1.421875 27.875 -1.421875 
Q 17.96875 -1.421875 11.734375 6.484375 
Q 5.515625 14.40625 5.515625 27.296875 
Q 5.515625 40.1875 11.734375 48.09375 
Q 17.96875 56 27.875 56 
Q 33.9375 56 38.25 53.625 
Q 42.578125 51.265625 45.40625 46.390625 
z
M 14.796875 27.296875 
Q 14.796875 17.390625 18.875 11.75 
Q 22.953125 6.109375 30.078125 6.109375 
Q 37.203125 6.109375 41.296875 11.75 
Q 45.40625 17.390625 45.40625 27.296875 
Q 45.40625 37.203125 41.296875 42.84375 
Q 37.203125 48.484375 30.078125 48.484375 
Q 22.953125 48.484375 18.875 42.84375 
Q 14.796875 37.203125 14.796875 27.296875 
z
" id="DejaVuSans-64"/>
     </defs>
     <g transform="translate(344.984062 151.99232)scale(0.1 -0.1)">
      <use xlink:href="#DejaVuSans-4e"/>
      <use x="74.804688" xlink:href="#DejaVuSans-4d"/>
      <use x="161.083984" xlink:href="#DejaVuSans-46"/>
      <use x="218.603516" xlink:href="#DejaVuSans-20"/>
      <use x="250.390625" xlink:href="#DejaVuSans-47"/>
      <use x="327.880859" xlink:href="#DejaVuSans-50"/>
      <use x="388.183594" xlink:href="#DejaVuSans-50"/>
      <use x="448.486328" xlink:href="#DejaVuSans-20"/>
      <use x="480.273438" xlink:href="#DejaVuSans-31"/>
      <use x="543.896484" xlink:href="#DejaVuSans-64"/>
     </g>
    </g>
   </g>
  </g>
  <g id="axes_3">
   <g id="patch_14">
    <path d="M 57.6 307.584 
L 414.72 307.584 
L 414.72 229.315765 
L 57.6 229.315765 
z
" style="fill:#ffffff;"/>
   </g>
   <g id="matplotlib.axis_1">
    <g id="xtick_1">
     <g id="line2d_7">
      <defs>
       <path d="M 0 0 
L 0 3.5 
" id="m16bc00cb62" style="stroke:#000000;stroke-width:0.8;"/>
      </defs>
      <g>
       <use style="stroke:#000000;stroke-width:0.8;" x="73.832727" xlink:href="#m16bc00cb62" y="307.584"/>
      </g>
     </g>
     <g id="text_3">
      <!-- 0 -->
      <defs>
       <path d="M 31.78125 66.40625 
Q 24.171875 66.40625 20.328125 58.90625 
Q 16.5 51.421875 16.5 36.375 
Q 16.5 21.390625 20.328125 13.890625 
Q 24.171875 6.390625 31.78125 6.390625 
Q 39.453125 6.390625 43.28125 13.890625 
Q 47.125 21.390625 47.125 36.375 
Q 47.125 51.421875 43.28125 58.90625 
Q 39.453125 66.40625 31.78125 66.40625 
z
M 31.78125 74.21875 
Q 44.046875 74.21875 50.515625 64.515625 
Q 56.984375 54.828125 56.984375 36.375 
Q 56.984375 17.96875 50.515625 8.265625 
Q 44.046875 -1.421875 31.78125 -1.421875 
Q 19.53125 -1.421875 13.0625 8.265625 
Q 6.59375 17.96875 6.59375 36.375 
Q 6.59375 54.828125 13.0625 64.515625 
Q 19.53125 74.21875 31.78125 74.21875 
z
" id="DejaVuSans-30"/>
      </defs>
      <g transform="translate(70.651477 322.182437)scale(0.1 -0.1)">
       <use xlink:href="#DejaVuSans-30"/>
      </g>
     </g>
    </g>
    <g id="xtick_2">
     <g id="line2d_8">
      <g>
       <use style="stroke:#000000;stroke-width:0.8;" x="139.024403" xlink:href="#m16bc00cb62" y="307.584"/>
      </g>
     </g>
     <g id="text_4">
      <!-- 50 -->
      <defs>
       <path d="M 10.796875 72.90625 
L 49.515625 72.90625 
L 49.515625 64.59375 
L 19.828125 64.59375 
L 19.828125 46.734375 
Q 21.96875 47.46875 24.109375 47.828125 
Q 26.265625 48.1875 28.421875 48.1875 
Q 40.625 48.1875 47.75 41.5 
Q 54.890625 34.8125 54.890625 23.390625 
Q 54.890625 11.625 47.5625 5.09375 
Q 40.234375 -1.421875 26.90625 -1.421875 
Q 22.3125 -1.421875 17.546875 -0.640625 
Q 12.796875 0.140625 7.71875 1.703125 
L 7.71875 11.625 
Q 12.109375 9.234375 16.796875 8.0625 
Q 21.484375 6.890625 26.703125 6.890625 
Q 35.15625 6.890625 40.078125 11.328125 
Q 45.015625 15.765625 45.015625 23.390625 
Q 45.015625 31 40.078125 35.4375 
Q 35.15625 39.890625 26.703125 39.890625 
Q 22.75 39.890625 18.8125 39.015625 
Q 14.890625 38.140625 10.796875 36.28125 
z
" id="DejaVuSans-35"/>
      </defs>
      <g transform="translate(132.661903 322.182437)scale(0.1 -0.1)">
       <use xlink:href="#DejaVuSans-35"/>
       <use x="63.623047" xlink:href="#DejaVuSans-30"/>
      </g>
     </g>
    </g>
    <g id="xtick_3">
     <g id="line2d_9">
      <g>
       <use style="stroke:#000000;stroke-width:0.8;" x="204.216079" xlink:href="#m16bc00cb62" y="307.584"/>
      </g>
     </g>
     <g id="text_5">
      <!-- 100 -->
      <g transform="translate(194.672329 322.182437)scale(0.1 -0.1)">
       <use xlink:href="#DejaVuSans-31"/>
       <use x="63.623047" xlink:href="#DejaVuSans-30"/>
       <use x="127.246094" xlink:href="#DejaVuSans-30"/>
      </g>
     </g>
    </g>
    <g id="xtick_4">
     <g id="line2d_10">
      <g>
       <use style="stroke:#000000;stroke-width:0.8;" x="269.407755" xlink:href="#m16bc00cb62" y="307.584"/>
      </g>
     </g>
     <g id="text_6">
      <!-- 150 -->
      <g transform="translate(259.864005 322.182437)scale(0.1 -0.1)">
       <use xlink:href="#DejaVuSans-31"/>
       <use x="63.623047" xlink:href="#DejaVuSans-35"/>
       <use x="127.246094" xlink:href="#DejaVuSans-30"/>
      </g>
     </g>
    </g>
    <g id="xtick_5">
     <g id="line2d_11">
      <g>
       <use style="stroke:#000000;stroke-width:0.8;" x="334.59943" xlink:href="#m16bc00cb62" y="307.584"/>
      </g>
     </g>
     <g id="text_7">
      <!-- 200 -->
      <defs>
       <path d="M 19.1875 8.296875 
L 53.609375 8.296875 
L 53.609375 0 
L 7.328125 0 
L 7.328125 8.296875 
Q 12.9375 14.109375 22.625 23.890625 
Q 32.328125 33.6875 34.8125 36.53125 
Q 39.546875 41.84375 41.421875 45.53125 
Q 43.3125 49.21875 43.3125 52.78125 
Q 43.3125 58.59375 39.234375 62.25 
Q 35.15625 65.921875 28.609375 65.921875 
Q 23.96875 65.921875 18.8125 64.3125 
Q 13.671875 62.703125 7.8125 59.421875 
L 7.8125 69.390625 
Q 13.765625 71.78125 18.9375 73 
Q 24.125 74.21875 28.421875 74.21875 
Q 39.75 74.21875 46.484375 68.546875 
Q 53.21875 62.890625 53.21875 53.421875 
Q 53.21875 48.921875 51.53125 44.890625 
Q 49.859375 40.875 45.40625 35.40625 
Q 44.1875 33.984375 37.640625 27.21875 
Q 31.109375 20.453125 19.1875 8.296875 
z
" id="DejaVuSans-32"/>
      </defs>
      <g transform="translate(325.05568 322.182437)scale(0.1 -0.1)">
       <use xlink:href="#DejaVuSans-32"/>
       <use x="63.623047" xlink:href="#DejaVuSans-30"/>
       <use x="127.246094" xlink:href="#DejaVuSans-30"/>
      </g>
     </g>
    </g>
    <g id="xtick_6">
     <g id="line2d_12">
      <g>
       <use style="stroke:#000000;stroke-width:0.8;" x="399.791106" xlink:href="#m16bc00cb62" y="307.584"/>
      </g>
     </g>
     <g id="text_8">
      <!-- 250 -->
      <g transform="translate(390.247356 322.182437)scale(0.1 -0.1)">
       <use xlink:href="#DejaVuSans-32"/>
       <use x="63.623047" xlink:href="#DejaVuSans-35"/>
       <use x="127.246094" xlink:href="#DejaVuSans-30"/>
      </g>
     </g>
    </g>
    <g id="text_9">
     <!-- Wave number -->
     <defs>
      <path d="M 3.328125 72.90625 
L 13.28125 72.90625 
L 28.609375 11.28125 
L 43.890625 72.90625 
L 54.984375 72.90625 
L 70.3125 11.28125 
L 85.59375 72.90625 
L 95.609375 72.90625 
L 77.296875 0 
L 64.890625 0 
L 49.515625 63.28125 
L 33.984375 0 
L 21.578125 0 
z
" id="DejaVuSans-57"/>
      <path d="M 34.28125 27.484375 
Q 23.390625 27.484375 19.1875 25 
Q 14.984375 22.515625 14.984375 16.5 
Q 14.984375 11.71875 18.140625 8.90625 
Q 21.296875 6.109375 26.703125 6.109375 
Q 34.1875 6.109375 38.703125 11.40625 
Q 43.21875 16.703125 43.21875 25.484375 
L 43.21875 27.484375 
z
M 52.203125 31.203125 
L 52.203125 0 
L 43.21875 0 
L 43.21875 8.296875 
Q 40.140625 3.328125 35.546875 0.953125 
Q 30.953125 -1.421875 24.3125 -1.421875 
Q 15.921875 -1.421875 10.953125 3.296875 
Q 6 8.015625 6 15.921875 
Q 6 25.140625 12.171875 29.828125 
Q 18.359375 34.515625 30.609375 34.515625 
L 43.21875 34.515625 
L 43.21875 35.40625 
Q 43.21875 41.609375 39.140625 45 
Q 35.0625 48.390625 27.6875 48.390625 
Q 23 48.390625 18.546875 47.265625 
Q 14.109375 46.140625 10.015625 43.890625 
L 10.015625 52.203125 
Q 14.9375 54.109375 19.578125 55.046875 
Q 24.21875 56 28.609375 56 
Q 40.484375 56 46.34375 49.84375 
Q 52.203125 43.703125 52.203125 31.203125 
z
" id="DejaVuSans-61"/>
      <path d="M 2.984375 54.6875 
L 12.5 54.6875 
L 29.59375 8.796875 
L 46.6875 54.6875 
L 56.203125 54.6875 
L 35.6875 0 
L 23.484375 0 
z
" id="DejaVuSans-76"/>
      <path d="M 54.890625 33.015625 
L 54.890625 0 
L 45.90625 0 
L 45.90625 32.71875 
Q 45.90625 40.484375 42.875 44.328125 
Q 39.84375 48.1875 33.796875 48.1875 
Q 26.515625 48.1875 22.3125 43.546875 
Q 18.109375 38.921875 18.109375 30.90625 
L 18.109375 0 
L 9.078125 0 
L 9.078125 54.6875 
L 18.109375 54.6875 
L 18.109375 46.1875 
Q 21.34375 51.125 25.703125 53.5625 
Q 30.078125 56 35.796875 56 
Q 45.21875 56 50.046875 50.171875 
Q 54.890625 44.34375 54.890625 33.015625 
z
" id="DejaVuSans-6e"/>
      <path d="M 48.6875 27.296875 
Q 48.6875 37.203125 44.609375 42.84375 
Q 40.53125 48.484375 33.40625 48.484375 
Q 26.265625 48.484375 22.1875 42.84375 
Q 18.109375 37.203125 18.109375 27.296875 
Q 18.109375 17.390625 22.1875 11.75 
Q 26.265625 6.109375 33.40625 6.109375 
Q 40.53125 6.109375 44.609375 11.75 
Q 48.6875 17.390625 48.6875 27.296875 
z
M 18.109375 46.390625 
Q 20.953125 51.265625 25.265625 53.625 
Q 29.59375 56 35.59375 56 
Q 45.5625 56 51.78125 48.09375 
Q 58.015625 40.1875 58.015625 27.296875 
Q 58.015625 14.40625 51.78125 6.484375 
Q 45.5625 -1.421875 35.59375 -1.421875 
Q 29.59375 -1.421875 25.265625 0.953125 
Q 20.953125 3.328125 18.109375 8.203125 
L 18.109375 0 
L 9.078125 0 
L 9.078125 75.984375 
L 18.109375 75.984375 
z
" id="DejaVuSans-62"/>
     </defs>
     <g transform="translate(201.017812 335.860562)scale(0.1 -0.1)">
      <use xlink:href="#DejaVuSans-57"/>
      <use x="98.783203" xlink:href="#DejaVuSans-61"/>
      <use x="160.0625" xlink:href="#DejaVuSans-76"/>
      <use x="219.242188" xlink:href="#DejaVuSans-65"/>
      <use x="280.765625" xlink:href="#DejaVuSans-20"/>
      <use x="312.552734" xlink:href="#DejaVuSans-6e"/>
      <use x="375.931641" xlink:href="#DejaVuSans-75"/>
      <use x="439.310547" xlink:href="#DejaVuSans-6d"/>
      <use x="536.722656" xlink:href="#DejaVuSans-62"/>
      <use x="600.199219" xlink:href="#DejaVuSans-65"/>
      <use x="661.722656" xlink:href="#DejaVuSans-72"/>
     </g>
    </g>
   </g>
   <g id="line2d_13">
    <path clip-path="url(#p534e6f783b)" d="M 73.832727 284.776934 
L 79.048061 269.862054 
L 80.351895 267.058991 
L 81.655728 265.012148 
L 82.959562 263.759562 
L 84.263395 263.287817 
L 85.567229 263.536019 
L 86.871062 264.421374 
L 88.174896 265.877785 
L 89.478729 267.878179 
L 90.782563 270.422566 
L 92.086396 273.497878 
L 93.39023 277.07263 
L 95.997897 285.25884 
L 98.605564 293.367759 
L 99.909398 296.737508 
L 101.213231 299.397945 
L 102.517065 301.302895 
L 103.820898 302.534821 
L 105.124732 303.256636 
L 106.428565 303.645312 
L 109.036232 303.940777 
L 114.251566 304.026353 
L 122.074567 303.914041 
L 124.682234 303.753526 
L 127.289901 303.363603 
L 128.593735 302.989301 
L 129.897568 302.409138 
L 131.201402 301.531381 
L 132.505235 300.24681 
L 133.809069 298.440439 
L 135.112903 296.010082 
L 136.416736 292.888772 
L 137.72057 289.063202 
L 139.024403 284.59587 
L 141.63207 274.38655 
L 144.239737 264.173951 
L 145.543571 259.765085 
L 146.847404 256.115127 
L 148.151238 253.32732 
L 149.455071 251.388516 
L 150.758905 250.203275 
L 152.062738 249.5913 
L 153.366572 249.421621 
L 154.670405 249.538492 
L 155.974239 249.87433 
L 157.278072 250.444173 
L 158.581906 251.358663 
L 159.885739 252.75137 
L 161.189573 254.809299 
L 162.493406 257.614386 
L 163.79724 261.191338 
L 165.101073 265.425613 
L 169.012574 279.400687 
L 170.316407 283.494041 
L 171.620241 286.955132 
L 172.924074 289.72508 
L 174.227908 291.831351 
L 175.531742 293.354783 
L 176.835575 294.405704 
L 178.139409 295.091933 
L 179.443242 295.519765 
L 182.050909 295.959444 
L 185.96241 296.494273 
L 191.177744 297.445712 
L 193.785411 297.605864 
L 195.089244 297.526386 
L 196.393078 297.32229 
L 197.696911 296.986561 
L 199.000745 296.510936 
L 200.304578 295.888382 
L 201.608412 295.110045 
L 202.912245 294.161237 
L 204.216079 293.025691 
L 205.519912 291.681797 
L 206.823746 290.104589 
L 208.127579 288.281411 
L 209.431413 286.197694 
L 212.03908 281.306793 
L 215.950581 272.853711 
L 218.558248 267.259626 
L 221.165915 262.123212 
L 223.773582 257.453589 
L 226.381249 253.205663 
L 227.685082 251.292285 
L 228.988916 249.591527 
L 230.292749 248.210541 
L 231.596583 247.214505 
L 232.900416 246.682568 
L 234.20425 246.687465 
L 235.508083 247.229127 
L 236.811917 248.286572 
L 238.11575 249.771035 
L 240.723417 253.647529 
L 243.331084 257.625087 
L 244.634918 259.226769 
L 245.938751 260.346287 
L 247.242585 260.883972 
L 248.546418 260.750363 
L 249.850252 259.931194 
L 251.154085 258.461368 
L 252.457919 256.436016 
L 255.065586 251.329884 
L 257.673253 246.007953 
L 260.28092 241.398942 
L 262.888587 237.643429 
L 264.192421 236.009013 
L 265.496254 234.59058 
L 266.800088 233.47487 
L 268.103921 232.873412 
L 269.407755 232.994091 
L 270.711588 234.061341 
L 272.015422 236.190275 
L 273.319255 239.428016 
L 274.623089 243.698587 
L 275.926922 248.776062 
L 281.142256 271.335659 
L 282.44609 276.260404 
L 283.749923 280.593178 
L 285.053757 284.296399 
L 286.35759 287.370005 
L 287.661424 289.85007 
L 288.965257 291.798645 
L 290.269091 293.286595 
L 291.572924 294.388633 
L 292.876758 295.175841 
L 294.180591 295.722934 
L 296.788258 296.365185 
L 300.699759 297.081126 
L 303.307426 297.803928 
L 308.52276 299.532821 
L 311.130427 300.134635 
L 313.738094 300.47184 
L 321.561095 301.113667 
L 325.472596 301.875619 
L 329.384096 302.676956 
L 331.991763 303.059348 
L 335.903264 303.367045 
L 339.814765 303.443528 
L 354.156933 303.40812 
L 365.891435 303.770666 
L 377.625936 303.775423 
L 394.575772 303.636791 
L 398.487273 303.336868 
L 398.487273 303.336868 
" style="fill:none;stroke:#1f77b4;stroke-linecap:square;stroke-width:1.5;"/>
   </g>
   <g id="patch_15">
    <path d="M 57.6 307.584 
L 57.6 229.315765 
" style="fill:none;stroke:#000000;stroke-linecap:square;stroke-linejoin:miter;stroke-width:0.8;"/>
   </g>
   <g id="patch_16">
    <path d="M 414.72 307.584 
L 414.72 229.315765 
" style="fill:none;stroke:#000000;stroke-linecap:square;stroke-linejoin:miter;stroke-width:0.8;"/>
   </g>
   <g id="patch_17">
    <path d="M 57.6 307.584 
L 414.72 307.584 
" style="fill:none;stroke:#000000;stroke-linecap:square;stroke-linejoin:miter;stroke-width:0.8;"/>
   </g>
   <g id="patch_18">
    <path d="M 57.6 229.315765 
L 414.72 229.315765 
" style="fill:none;stroke:#000000;stroke-linecap:square;stroke-linejoin:miter;stroke-width:0.8;"/>
   </g>
   <g id="legend_3">
    <g id="patch_19">
     <path d="M 314.984062 251.99389 
L 407.72 251.99389 
Q 409.72 251.99389 409.72 249.99389 
L 409.72 236.315765 
Q 409.72 234.315765 407.72 234.315765 
L 314.984062 234.315765 
Q 312.984062 234.315765 312.984062 236.315765 
L 312.984062 249.99389 
Q 312.984062 251.99389 314.984062 251.99389 
z
" style="fill:#ffffff;opacity:0.8;stroke:#cccccc;stroke-linejoin:miter;"/>
    </g>
    <g id="line2d_14">
     <path d="M 316.984062 242.414202 
L 336.984062 242.414202 
" style="fill:none;stroke:#1f77b4;stroke-linecap:square;stroke-width:1.5;"/>
    </g>
    <g id="line2d_15"/>
    <g id="text_10">
     <!-- NMF GPP 2d -->
     <g transform="translate(344.984062 245.914202)scale(0.1 -0.1)">
      <use xlink:href="#DejaVuSans-4e"/>
      <use x="74.804688" xlink:href="#DejaVuSans-4d"/>
      <use x="161.083984" xlink:href="#DejaVuSans-46"/>
      <use x="218.603516" xlink:href="#DejaVuSans-20"/>
      <use x="250.390625" xlink:href="#DejaVuSans-47"/>
      <use x="327.880859" xlink:href="#DejaVuSans-50"/>
      <use x="388.183594" xlink:href="#DejaVuSans-50"/>
      <use x="448.486328" xlink:href="#DejaVuSans-20"/>
      <use x="480.273438" xlink:href="#DejaVuSans-32"/>
      <use x="543.896484" xlink:href="#DejaVuSans-64"/>
     </g>
    </g>
   </g>
  </g>
 </g>
 <defs>
  <clipPath id="p47717fd3ab">
   <rect height="78.268235" width="357.12" x="57.6" y="41.472"/>
  </clipPath>
  <clipPath id="pd73d1a7f5f">
   <rect height="78.268235" width="357.12" x="57.6" y="135.393882"/>
  </clipPath>
  <clipPath id="p534e6f783b">
   <rect height="78.268235" width="357.12" x="57.6" y="229.315765"/>
  </clipPath>
 </defs>
</svg>
